<svg id="visual" viewBox="0 0 1920 1080" width="1920" height="1080" xmlns="http://www.w3.org/2000/svg" xmlns:xlink="http://www.w3.org/1999/xlink" version="1.1"><path d="M0 12L128 12L128 109L256 109L256 33L384 33L384 77L512 77L512 152L640 152L640 87L768 87L768 98L896 98L896 131L1024 131L1024 152L1152 152L1152 131L1280 131L1280 66L1408 66L1408 66L1536 66L1536 141L1664 141L1664 55L1792 55L1792 77L1920 77L1920 33L1920 0L1920 0L1792 0L1792 0L1664 0L1664 0L1536 0L1536 0L1408 0L1408 0L1280 0L1280 0L1152 0L1152 0L1024 0L1024 0L896 0L896 0L768 0L768 0L640 0L640 0L512 0L512 0L384 0L384 0L256 0L256 0L128 0L128 0L0 0Z" fill="#2962e3"></path><path d="M0 77L128 77L128 163L256 163L256 131L384 131L384 87L512 87L512 163L640 163L640 109L768 109L768 206L896 206L896 185L1024 185L1024 217L1152 217L1152 195L1280 195L1280 141L1408 141L1408 174L1536 174L1536 249L1664 249L1664 109L1792 109L1792 120L1920 120L1920 141L1920 31L1920 75L1792 75L1792 53L1664 53L1664 139L1536 139L1536 64L1408 64L1408 64L1280 64L1280 129L1152 129L1152 150L1024 150L1024 129L896 129L896 96L768 96L768 85L640 85L640 150L512 150L512 75L384 75L384 31L256 31L256 107L128 107L128 10L0 10Z" fill="#2759d9"></path><path d="M0 249L128 249L128 217L256 217L256 347L384 347L384 293L512 293L512 239L640 239L640 282L768 282L768 239L896 239L896 293L1024 293L1024 325L1152 325L1152 368L1280 368L1280 217L1408 217L1408 390L1536 390L1536 325L1664 325L1664 131L1792 131L1792 174L1920 174L1920 217L1920 139L1920 118L1792 118L1792 107L1664 107L1664 247L1536 247L1536 172L1408 172L1408 139L1280 139L1280 193L1152 193L1152 215L1024 215L1024 183L896 183L896 204L768 204L768 107L640 107L640 161L512 161L512 85L384 85L384 129L256 129L256 161L128 161L128 75L0 75Z" fill="#2551ce"></path><path d="M0 314L128 314L128 271L256 271L256 519L384 519L384 433L512 433L512 509L640 509L640 563L768 563L768 584L896 584L896 617L1024 617L1024 433L1152 433L1152 606L1280 606L1280 347L1408 347L1408 498L1536 498L1536 617L1664 617L1664 260L1792 260L1792 249L1920 249L1920 347L1920 215L1920 172L1792 172L1792 129L1664 129L1664 323L1536 323L1536 388L1408 388L1408 215L1280 215L1280 366L1152 366L1152 323L1024 323L1024 291L896 291L896 237L768 237L768 280L640 280L640 237L512 237L512 291L384 291L384 345L256 345L256 215L128 215L128 247L0 247Z" fill="#2348c4"></path><path d="M0 390L128 390L128 336L256 336L256 617L384 617L384 455L512 455L512 563L640 563L640 627L768 627L768 681L896 681L896 714L1024 714L1024 476L1152 476L1152 638L1280 638L1280 422L1408 422L1408 509L1536 509L1536 649L1664 649L1664 325L1792 325L1792 347L1920 347L1920 444L1920 345L1920 247L1792 247L1792 258L1664 258L1664 615L1536 615L1536 496L1408 496L1408 345L1280 345L1280 604L1152 604L1152 431L1024 431L1024 615L896 615L896 582L768 582L768 561L640 561L640 507L512 507L512 431L384 431L384 517L256 517L256 269L128 269L128 312L0 312Z" fill="#2140ba"></path><path d="M0 455L128 455L128 401L256 401L256 671L384 671L384 498L512 498L512 692L640 692L640 714L768 714L768 822L896 822L896 854L1024 854L1024 606L1152 606L1152 725L1280 725L1280 530L1408 530L1408 617L1536 617L1536 692L1664 692L1664 433L1792 433L1792 379L1920 379L1920 465L1920 442L1920 345L1792 345L1792 323L1664 323L1664 647L1536 647L1536 507L1408 507L1408 420L1280 420L1280 636L1152 636L1152 474L1024 474L1024 712L896 712L896 679L768 679L768 625L640 625L640 561L512 561L512 453L384 453L384 615L256 615L256 334L128 334L128 388L0 388Z" fill="#1f38b0"></path><path d="M0 887L128 887L128 779L256 779L256 822L384 822L384 919L512 919L512 897L640 897L640 833L768 833L768 1027L896 1027L896 951L1024 951L1024 951L1152 951L1152 833L1280 833L1280 865L1408 865L1408 887L1536 887L1536 735L1664 735L1664 995L1792 995L1792 833L1920 833L1920 833L1920 463L1920 377L1792 377L1792 431L1664 431L1664 690L1536 690L1536 615L1408 615L1408 528L1280 528L1280 723L1152 723L1152 604L1024 604L1024 852L896 852L896 820L768 820L768 712L640 712L640 690L512 690L512 496L384 496L384 669L256 669L256 399L128 399L128 453L0 453Z" fill="#1c2fa6"></path><path d="M0 951L128 951L128 1038L256 1038L256 1049L384 1049L384 995L512 995L512 1038L640 1038L640 995L768 995L768 1070L896 1070L896 995L1024 995L1024 1027L1152 1027L1152 995L1280 995L1280 1049L1408 1049L1408 1049L1536 1049L1536 984L1664 984L1664 1038L1792 1038L1792 962L1920 962L1920 1059L1920 831L1920 831L1792 831L1792 993L1664 993L1664 733L1536 733L1536 885L1408 885L1408 863L1280 863L1280 831L1152 831L1152 949L1024 949L1024 949L896 949L896 1025L768 1025L768 831L640 831L640 895L512 895L512 917L384 917L384 820L256 820L256 777L128 777L128 885L0 885Z" fill="#19279c"></path><path d="M0 1081L128 1081L128 1081L256 1081L256 1081L384 1081L384 1081L512 1081L512 1081L640 1081L640 1081L768 1081L768 1081L896 1081L896 1081L1024 1081L1024 1081L1152 1081L1152 1081L1280 1081L1280 1081L1408 1081L1408 1081L1536 1081L1536 1081L1664 1081L1664 1081L1792 1081L1792 1081L1920 1081L1920 1081L1920 1057L1920 960L1792 960L1792 1036L1664 1036L1664 982L1536 982L1536 1047L1408 1047L1408 1047L1280 1047L1280 993L1152 993L1152 1025L1024 1025L1024 993L896 993L896 1068L768 1068L768 993L640 993L640 1036L512 1036L512 993L384 993L384 1047L256 1047L256 1036L128 1036L128 949L0 949Z" fill="#161e92"></path></svg>