<svg id="visual" viewBox="0 0 1920 1080" width="1920" height="1080" xmlns="http://www.w3.org/2000/svg" xmlns:xlink="http://www.w3.org/1999/xlink" version="1.1"><g stroke-width="1" stroke-linejoin="bevel"><path d="M952 557L879 605L957 644Z" fill="#112e3e" stroke="#FFFFFF"></path><path d="M957 644L1031 656L952 557Z" fill="#102734" stroke="#FFFFFF"></path><path d="M952 557L854 507L879 605Z" fill="#123d53" stroke="#FFFFFF"></path><path d="M1031 656L1060 546L952 557Z" fill="#12445d" stroke="#FFFFFF"></path><path d="M950 428L849 466L854 507Z" fill="#102734" stroke="#FFFFFF"></path><path d="M831 717L975 746L957 644Z" fill="#112e3e" stroke="#FFFFFF"></path><path d="M957 644L975 746L1031 656Z" fill="#0d1921" stroke="#FFFFFF"></path><path d="M756 638L831 717L879 605Z" fill="#102734" stroke="#FFFFFF"></path><path d="M879 605L831 717L957 644Z" fill="#115473" stroke="#FFFFFF"></path><path d="M950 428L854 507L952 557Z" fill="#0d1921" stroke="#FFFFFF"></path><path d="M854 507L782 514L879 605Z" fill="#123548" stroke="#FFFFFF"></path><path d="M975 746L1057 695L1031 656Z" fill="#0d1921" stroke="#FFFFFF"></path><path d="M1031 656L1121 625L1060 546Z" fill="#102734" stroke="#FFFFFF"></path><path d="M849 466L782 514L854 507Z" fill="#112e3e" stroke="#FFFFFF"></path><path d="M1043 427L950 428L952 557Z" fill="#123d53" stroke="#FFFFFF"></path><path d="M782 514L756 638L879 605Z" fill="#102734" stroke="#FFFFFF"></path><path d="M756 638L777 706L831 717Z" fill="#12445d" stroke="#FFFFFF"></path><path d="M1057 695L1121 625L1031 656Z" fill="#071218" stroke="#FFFFFF"></path><path d="M893 799L993 788L975 746Z" fill="#0d1921" stroke="#FFFFFF"></path><path d="M975 746L993 788L1057 695Z" fill="#0d1921" stroke="#FFFFFF"></path><path d="M1057 695L1129 723L1121 625Z" fill="#124c68" stroke="#FFFFFF"></path><path d="M893 799L975 746L831 717Z" fill="#071218" stroke="#FFFFFF"></path><path d="M791 800L893 799L831 717Z" fill="#123d53" stroke="#FFFFFF"></path><path d="M1159 460L1043 427L1060 546Z" fill="#102734" stroke="#FFFFFF"></path><path d="M1060 546L1043 427L952 557Z" fill="#123d53" stroke="#FFFFFF"></path><path d="M1049 813L1129 723L1057 695Z" fill="#112e3e" stroke="#FFFFFF"></path><path d="M868 362L764 432L849 466Z" fill="#071218" stroke="#FFFFFF"></path><path d="M849 466L764 432L782 514Z" fill="#0d1921" stroke="#FFFFFF"></path><path d="M646 562L654 608L756 638Z" fill="#112e3e" stroke="#FFFFFF"></path><path d="M698 808L791 800L777 706Z" fill="#102734" stroke="#FFFFFF"></path><path d="M777 706L791 800L831 717Z" fill="#0d1921" stroke="#FFFFFF"></path><path d="M1040 911L1049 813L993 788Z" fill="#123d53" stroke="#FFFFFF"></path><path d="M993 788L1049 813L1057 695Z" fill="#112e3e" stroke="#FFFFFF"></path><path d="M927 907L993 788L893 799Z" fill="#123d53" stroke="#FFFFFF"></path><path d="M959 331L868 362L950 428Z" fill="#124c68" stroke="#FFFFFF"></path><path d="M950 428L868 362L849 466Z" fill="#0d1921" stroke="#FFFFFF"></path><path d="M1220 553L1176 558L1226 656Z" fill="#12445d" stroke="#FFFFFF"></path><path d="M1121 625L1176 558L1060 546Z" fill="#12445d" stroke="#FFFFFF"></path><path d="M1176 558L1159 460L1060 546Z" fill="#0e202b" stroke="#FFFFFF"></path><path d="M1043 427L959 331L950 428Z" fill="#123548" stroke="#FFFFFF"></path><path d="M1071 354L959 331L1043 427Z" fill="#123d53" stroke="#FFFFFF"></path><path d="M646 562L756 638L782 514Z" fill="#071218" stroke="#FFFFFF"></path><path d="M756 638L662 712L777 706Z" fill="#123d53" stroke="#FFFFFF"></path><path d="M1159 460L1071 354L1043 427Z" fill="#112e3e" stroke="#FFFFFF"></path><path d="M665 450L646 562L782 514Z" fill="#0e202b" stroke="#FFFFFF"></path><path d="M575 687L662 712L654 608Z" fill="#00080e" stroke="#FFFFFF"></path><path d="M654 608L662 712L756 638Z" fill="#102734" stroke="#FFFFFF"></path><path d="M868 362L774 353L764 432Z" fill="#0d1921" stroke="#FFFFFF"></path><path d="M764 432L665 450L782 514Z" fill="#112e3e" stroke="#FFFFFF"></path><path d="M831 290L774 353L868 362Z" fill="#071218" stroke="#FFFFFF"></path><path d="M1226 656L1176 558L1121 625Z" fill="#115473" stroke="#FFFFFF"></path><path d="M1176 558L1219 476L1159 460Z" fill="#00080e" stroke="#FFFFFF"></path><path d="M1049 813L1130 824L1129 723Z" fill="#071218" stroke="#FFFFFF"></path><path d="M1129 723L1226 656L1121 625Z" fill="#102734" stroke="#FFFFFF"></path><path d="M1040 911L1130 824L1049 813Z" fill="#102734" stroke="#FFFFFF"></path><path d="M1225 723L1226 656L1129 723Z" fill="#0e202b" stroke="#FFFFFF"></path><path d="M1074 293L936 298L959 331Z" fill="#071218" stroke="#FFFFFF"></path><path d="M959 331L936 298L868 362Z" fill="#123d53" stroke="#FFFFFF"></path><path d="M668 389L665 450L764 432Z" fill="#0e202b" stroke="#FFFFFF"></path><path d="M830 895L893 799L791 800Z" fill="#0d1921" stroke="#FFFFFF"></path><path d="M830 895L927 907L893 799Z" fill="#00080e" stroke="#FFFFFF"></path><path d="M798 933L830 895L791 800Z" fill="#115473" stroke="#FFFFFF"></path><path d="M662 712L698 808L777 706Z" fill="#102734" stroke="#FFFFFF"></path><path d="M1319 542L1219 476L1220 553Z" fill="#0e202b" stroke="#FFFFFF"></path><path d="M1220 553L1219 476L1176 558Z" fill="#0d1921" stroke="#FFFFFF"></path><path d="M1158 336L1074 293L1071 354Z" fill="#0d1921" stroke="#FFFFFF"></path><path d="M1130 824L1225 723L1129 723Z" fill="#0e202b" stroke="#FFFFFF"></path><path d="M936 298L831 290L868 362Z" fill="#0e202b" stroke="#FFFFFF"></path><path d="M774 353L668 389L764 432Z" fill="#123d53" stroke="#FFFFFF"></path><path d="M927 907L1040 911L993 788Z" fill="#124c68" stroke="#FFFFFF"></path><path d="M685 284L668 389L774 353Z" fill="#123d53" stroke="#FFFFFF"></path><path d="M665 450L609 462L646 562Z" fill="#123548" stroke="#FFFFFF"></path><path d="M831 290L775 299L774 353Z" fill="#124c68" stroke="#FFFFFF"></path><path d="M1158 336L1071 354L1159 460Z" fill="#115473" stroke="#FFFFFF"></path><path d="M1071 354L1074 293L959 331Z" fill="#12445d" stroke="#FFFFFF"></path><path d="M936 298L878 172L831 290Z" fill="#12445d" stroke="#FFFFFF"></path><path d="M668 389L609 462L665 450Z" fill="#071218" stroke="#FFFFFF"></path><path d="M567 655L575 687L654 608Z" fill="#0d1921" stroke="#FFFFFF"></path><path d="M1269 356L1158 336L1159 460Z" fill="#0d1921" stroke="#FFFFFF"></path><path d="M686 892L798 933L791 800Z" fill="#112e3e" stroke="#FFFFFF"></path><path d="M830 895L885 967L927 907Z" fill="#12445d" stroke="#FFFFFF"></path><path d="M927 907L987 958L1040 911Z" fill="#00080e" stroke="#FFFFFF"></path><path d="M885 967L987 958L927 907Z" fill="#123d53" stroke="#FFFFFF"></path><path d="M567 655L654 608L646 562Z" fill="#0d1921" stroke="#FFFFFF"></path><path d="M662 712L548 821L698 808Z" fill="#123d53" stroke="#FFFFFF"></path><path d="M698 808L686 892L791 800Z" fill="#0e202b" stroke="#FFFFFF"></path><path d="M543 517L567 655L646 562Z" fill="#0e202b" stroke="#FFFFFF"></path><path d="M798 933L885 967L830 895Z" fill="#115473" stroke="#FFFFFF"></path><path d="M1157 894L1245 795L1130 824Z" fill="#12445d" stroke="#FFFFFF"></path><path d="M1130 824L1245 795L1225 723Z" fill="#0d1921" stroke="#FFFFFF"></path><path d="M1225 723L1314 636L1226 656Z" fill="#123d53" stroke="#FFFFFF"></path><path d="M1226 656L1314 636L1220 553Z" fill="#124c68" stroke="#FFFFFF"></path><path d="M1157 894L1130 824L1040 911Z" fill="#00080e" stroke="#FFFFFF"></path><path d="M1029 966L1157 894L1040 911Z" fill="#0e202b" stroke="#FFFFFF"></path><path d="M987 1080L1029 966L987 958Z" fill="#00080e" stroke="#FFFFFF"></path><path d="M987 958L1029 966L1040 911Z" fill="#124c68" stroke="#FFFFFF"></path><path d="M548 821L686 892L698 808Z" fill="#123d53" stroke="#FFFFFF"></path><path d="M797 1080L849 1080L885 967Z" fill="#112e3e" stroke="#FFFFFF"></path><path d="M1376 736L1314 636L1225 723Z" fill="#102734" stroke="#FFFFFF"></path><path d="M1219 476L1269 356L1159 460Z" fill="#0e202b" stroke="#FFFFFF"></path><path d="M1314 636L1319 542L1220 553Z" fill="#123548" stroke="#FFFFFF"></path><path d="M465 469L543 517L609 462Z" fill="#0e202b" stroke="#FFFFFF"></path><path d="M609 462L543 517L646 562Z" fill="#102734" stroke="#FFFFFF"></path><path d="M768 175L685 284L775 299Z" fill="#115473" stroke="#FFFFFF"></path><path d="M775 299L685 284L774 353Z" fill="#123d53" stroke="#FFFFFF"></path><path d="M668 389L591 379L609 462Z" fill="#071218" stroke="#FFFFFF"></path><path d="M768 175L775 299L831 290Z" fill="#071218" stroke="#FFFFFF"></path><path d="M686 892L752 963L798 933Z" fill="#0d1921" stroke="#FFFFFF"></path><path d="M685 284L591 379L668 389Z" fill="#112e3e" stroke="#FFFFFF"></path><path d="M1344 422L1269 356L1219 476Z" fill="#0e202b" stroke="#FFFFFF"></path><path d="M1158 336L1169 245L1074 293Z" fill="#112e3e" stroke="#FFFFFF"></path><path d="M1280 257L1169 245L1158 336Z" fill="#115473" stroke="#FFFFFF"></path><path d="M976 170L878 172L936 298Z" fill="#12445d" stroke="#FFFFFF"></path><path d="M976 170L936 298L1074 293Z" fill="#0d1921" stroke="#FFFFFF"></path><path d="M1072 190L976 170L1074 293Z" fill="#0e202b" stroke="#FFFFFF"></path><path d="M1169 245L1072 190L1074 293Z" fill="#124c68" stroke="#FFFFFF"></path><path d="M455 710L548 821L575 687Z" fill="#0e202b" stroke="#FFFFFF"></path><path d="M575 687L548 821L662 712Z" fill="#123d53" stroke="#FFFFFF"></path><path d="M686 892L689 1003L752 963Z" fill="#12445d" stroke="#FFFFFF"></path><path d="M455 710L575 687L567 655Z" fill="#123548" stroke="#FFFFFF"></path><path d="M1375 381L1344 422L1424 463Z" fill="#0d1921" stroke="#FFFFFF"></path><path d="M1319 542L1344 422L1219 476Z" fill="#123d53" stroke="#FFFFFF"></path><path d="M1269 356L1280 257L1158 336Z" fill="#071218" stroke="#FFFFFF"></path><path d="M878 172L768 175L831 290Z" fill="#124c68" stroke="#FFFFFF"></path><path d="M448 373L465 469L591 379Z" fill="#123d53" stroke="#FFFFFF"></path><path d="M1157 894L1261 924L1245 795Z" fill="#00080e" stroke="#FFFFFF"></path><path d="M1245 795L1376 736L1225 723Z" fill="#115473" stroke="#FFFFFF"></path><path d="M1175 993L1218 960L1157 894Z" fill="#0d1921" stroke="#FFFFFF"></path><path d="M1130 1080L1175 993L1029 966Z" fill="#12445d" stroke="#FFFFFF"></path><path d="M1029 966L1175 993L1157 894Z" fill="#112e3e" stroke="#FFFFFF"></path><path d="M987 1080L987 958L885 967Z" fill="#0e202b" stroke="#FFFFFF"></path><path d="M1218 960L1261 924L1157 894Z" fill="#00080e" stroke="#FFFFFF"></path><path d="M449 530L463 602L543 517Z" fill="#102734" stroke="#FFFFFF"></path><path d="M543 517L463 602L567 655Z" fill="#0d1921" stroke="#FFFFFF"></path><path d="M1366 810L1376 736L1245 795Z" fill="#12445d" stroke="#FFFFFF"></path><path d="M1314 636L1431 597L1319 542Z" fill="#00080e" stroke="#FFFFFF"></path><path d="M568 989L689 1003L686 892Z" fill="#112e3e" stroke="#FFFFFF"></path><path d="M797 1080L885 967L798 933Z" fill="#123548" stroke="#FFFFFF"></path><path d="M495 833L565 897L548 821Z" fill="#123d53" stroke="#FFFFFF"></path><path d="M548 821L565 897L686 892Z" fill="#00080e" stroke="#FFFFFF"></path><path d="M849 1080L987 1080L885 967Z" fill="#0e202b" stroke="#FFFFFF"></path><path d="M597 244L591 379L685 284Z" fill="#0d1921" stroke="#FFFFFF"></path><path d="M591 379L465 469L609 462Z" fill="#115473" stroke="#FFFFFF"></path><path d="M1338 922L1366 810L1245 795Z" fill="#0d1921" stroke="#FFFFFF"></path><path d="M797 1080L798 933L752 963Z" fill="#071218" stroke="#FFFFFF"></path><path d="M465 469L449 530L543 517Z" fill="#0d1921" stroke="#FFFFFF"></path><path d="M878 172L847 123L768 175Z" fill="#123548" stroke="#FFFFFF"></path><path d="M946 108L847 123L878 172Z" fill="#112e3e" stroke="#FFFFFF"></path><path d="M946 108L878 172L976 170Z" fill="#115473" stroke="#FFFFFF"></path><path d="M394 598L455 710L463 602Z" fill="#102734" stroke="#FFFFFF"></path><path d="M463 602L455 710L567 655Z" fill="#123d53" stroke="#FFFFFF"></path><path d="M655 185L685 284L768 175Z" fill="#112e3e" stroke="#FFFFFF"></path><path d="M655 185L597 244L685 284Z" fill="#115473" stroke="#FFFFFF"></path><path d="M455 710L495 833L548 821Z" fill="#123548" stroke="#FFFFFF"></path><path d="M1370 278L1280 257L1269 356Z" fill="#0d1921" stroke="#FFFFFF"></path><path d="M1169 245L1159 166L1072 190Z" fill="#12445d" stroke="#FFFFFF"></path><path d="M1219 175L1159 166L1169 245Z" fill="#00080e" stroke="#FFFFFF"></path><path d="M1087 87L946 108L976 170Z" fill="#102734" stroke="#FFFFFF"></path><path d="M1087 87L976 170L1072 190Z" fill="#112e3e" stroke="#FFFFFF"></path><path d="M689 1003L797 1080L752 963Z" fill="#102734" stroke="#FFFFFF"></path><path d="M987 1080L1063 1080L1029 966Z" fill="#12445d" stroke="#FFFFFF"></path><path d="M1248 1080L1338 961L1218 960Z" fill="#0d1921" stroke="#FFFFFF"></path><path d="M1424 463L1344 422L1319 542Z" fill="#123548" stroke="#FFFFFF"></path><path d="M1344 422L1375 381L1269 356Z" fill="#0d1921" stroke="#FFFFFF"></path><path d="M669 91L655 185L768 175Z" fill="#0e202b" stroke="#FFFFFF"></path><path d="M1471 714L1431 597L1376 736Z" fill="#0e202b" stroke="#FFFFFF"></path><path d="M1376 736L1431 597L1314 636Z" fill="#124c68" stroke="#FFFFFF"></path><path d="M1431 597L1426 510L1319 542Z" fill="#0d1921" stroke="#FFFFFF"></path><path d="M1520 520L1424 463L1426 510Z" fill="#071218" stroke="#FFFFFF"></path><path d="M1426 510L1424 463L1319 542Z" fill="#00080e" stroke="#FFFFFF"></path><path d="M1280 257L1219 175L1169 245Z" fill="#12445d" stroke="#FFFFFF"></path><path d="M1159 166L1087 87L1072 190Z" fill="#102734" stroke="#FFFFFF"></path><path d="M1228 119L1219 175L1373 183Z" fill="#00080e" stroke="#FFFFFF"></path><path d="M1063 1080L1130 1080L1029 966Z" fill="#12445d" stroke="#FFFFFF"></path><path d="M1338 961L1338 922L1261 924Z" fill="#102734" stroke="#FFFFFF"></path><path d="M1261 924L1338 922L1245 795Z" fill="#123d53" stroke="#FFFFFF"></path><path d="M1338 961L1261 924L1218 960Z" fill="#112e3e" stroke="#FFFFFF"></path><path d="M1435 843L1471 714L1376 736Z" fill="#115473" stroke="#FFFFFF"></path><path d="M588 1080L704 1080L689 1003Z" fill="#0e202b" stroke="#FFFFFF"></path><path d="M689 1003L704 1080L797 1080Z" fill="#112e3e" stroke="#FFFFFF"></path><path d="M568 989L686 892L565 897Z" fill="#123d53" stroke="#FFFFFF"></path><path d="M669 91L608 182L655 185Z" fill="#115473" stroke="#FFFFFF"></path><path d="M655 185L608 182L597 244Z" fill="#112e3e" stroke="#FFFFFF"></path><path d="M448 261L448 373L591 379Z" fill="#071218" stroke="#FFFFFF"></path><path d="M492 919L568 989L565 897Z" fill="#0e202b" stroke="#FFFFFF"></path><path d="M448 261L591 379L597 244Z" fill="#0e202b" stroke="#FFFFFF"></path><path d="M387 537L394 598L449 530Z" fill="#112e3e" stroke="#FFFFFF"></path><path d="M387 537L449 530L465 469Z" fill="#112e3e" stroke="#FFFFFF"></path><path d="M449 530L394 598L463 602Z" fill="#112e3e" stroke="#FFFFFF"></path><path d="M355 917L492 919L495 833Z" fill="#112e3e" stroke="#FFFFFF"></path><path d="M1157 91L1087 87L1159 166Z" fill="#112e3e" stroke="#FFFFFF"></path><path d="M1424 463L1417 370L1375 381Z" fill="#123d53" stroke="#FFFFFF"></path><path d="M1375 381L1370 278L1269 356Z" fill="#0d1921" stroke="#FFFFFF"></path><path d="M395 790L495 833L455 710Z" fill="#0e202b" stroke="#FFFFFF"></path><path d="M495 833L492 919L565 897Z" fill="#124c68" stroke="#FFFFFF"></path><path d="M857 0L750 89L847 123Z" fill="#0e202b" stroke="#FFFFFF"></path><path d="M847 123L750 89L768 175Z" fill="#124c68" stroke="#FFFFFF"></path><path d="M857 0L847 123L946 108Z" fill="#0e202b" stroke="#FFFFFF"></path><path d="M1248 1080L1218 960L1175 993Z" fill="#0d1921" stroke="#FFFFFF"></path><path d="M1435 843L1376 736L1366 810Z" fill="#12445d" stroke="#FFFFFF"></path><path d="M356 430L387 537L465 469Z" fill="#12445d" stroke="#FFFFFF"></path><path d="M1417 370L1370 278L1375 381Z" fill="#12445d" stroke="#FFFFFF"></path><path d="M314 688L396 726L394 598Z" fill="#12445d" stroke="#FFFFFF"></path><path d="M394 598L396 726L455 710Z" fill="#0d1921" stroke="#FFFFFF"></path><path d="M1435 843L1366 810L1338 922Z" fill="#12445d" stroke="#FFFFFF"></path><path d="M1431 597L1520 520L1426 510Z" fill="#123d53" stroke="#FFFFFF"></path><path d="M1424 463L1553 419L1417 370Z" fill="#123548" stroke="#FFFFFF"></path><path d="M1228 119L1157 91L1159 166Z" fill="#112e3e" stroke="#FFFFFF"></path><path d="M1228 119L1159 166L1219 175Z" fill="#0e202b" stroke="#FFFFFF"></path><path d="M1427 919L1435 843L1338 922Z" fill="#123d53" stroke="#FFFFFF"></path><path d="M396 726L395 790L455 710Z" fill="#115473" stroke="#FFFFFF"></path><path d="M314 688L395 790L396 726Z" fill="#123d53" stroke="#FFFFFF"></path><path d="M1373 183L1219 175L1280 257Z" fill="#112e3e" stroke="#FFFFFF"></path><path d="M750 89L669 91L768 175Z" fill="#115473" stroke="#FFFFFF"></path><path d="M485 161L448 261L597 244Z" fill="#102734" stroke="#FFFFFF"></path><path d="M1130 1080L1248 1080L1175 993Z" fill="#115473" stroke="#FFFFFF"></path><path d="M1338 961L1427 919L1338 922Z" fill="#112e3e" stroke="#FFFFFF"></path><path d="M492 919L496 990L568 989Z" fill="#0d1921" stroke="#FFFFFF"></path><path d="M568 989L588 1080L689 1003Z" fill="#12445d" stroke="#FFFFFF"></path><path d="M387 980L496 990L492 919Z" fill="#102734" stroke="#FFFFFF"></path><path d="M496 990L588 1080L568 989Z" fill="#12445d" stroke="#FFFFFF"></path><path d="M485 161L597 244L608 182Z" fill="#00080e" stroke="#FFFFFF"></path><path d="M448 373L356 430L465 469Z" fill="#0e202b" stroke="#FFFFFF"></path><path d="M1457 1010L1427 919L1338 961Z" fill="#112e3e" stroke="#FFFFFF"></path><path d="M1435 843L1511 825L1471 714Z" fill="#102734" stroke="#FFFFFF"></path><path d="M1552 654L1520 520L1431 597Z" fill="#115473" stroke="#FFFFFF"></path><path d="M1417 370L1415 252L1370 278Z" fill="#124c68" stroke="#FFFFFF"></path><path d="M1552 654L1431 597L1471 714Z" fill="#123548" stroke="#FFFFFF"></path><path d="M372 345L356 430L448 373Z" fill="#00080e" stroke="#FFFFFF"></path><path d="M301 607L314 688L394 598Z" fill="#123d53" stroke="#FFFFFF"></path><path d="M1536 239L1415 252L1417 370Z" fill="#0d1921" stroke="#FFFFFF"></path><path d="M1370 278L1373 183L1280 257Z" fill="#115473" stroke="#FFFFFF"></path><path d="M1067 0L1087 87L1119 0Z" fill="#123548" stroke="#FFFFFF"></path><path d="M1067 0L958 0L1087 87Z" fill="#0e202b" stroke="#FFFFFF"></path><path d="M1087 87L958 0L946 108Z" fill="#123548" stroke="#FFFFFF"></path><path d="M750 89L702 0L669 91Z" fill="#112e3e" stroke="#FFFFFF"></path><path d="M958 0L857 0L946 108Z" fill="#12445d" stroke="#FFFFFF"></path><path d="M1415 252L1373 183L1370 278Z" fill="#102734" stroke="#FFFFFF"></path><path d="M1248 1080L1311 1080L1338 961Z" fill="#00080e" stroke="#FFFFFF"></path><path d="M448 261L372 345L448 373Z" fill="#0e202b" stroke="#FFFFFF"></path><path d="M600 0L600 80L669 91Z" fill="#12445d" stroke="#FFFFFF"></path><path d="M669 91L600 80L608 182Z" fill="#123548" stroke="#FFFFFF"></path><path d="M448 261L362 277L372 345Z" fill="#071218" stroke="#FFFFFF"></path><path d="M1119 0L1157 91L1217 0Z" fill="#123548" stroke="#FFFFFF"></path><path d="M1119 0L1087 87L1157 91Z" fill="#071218" stroke="#FFFFFF"></path><path d="M301 607L394 598L387 537Z" fill="#123548" stroke="#FFFFFF"></path><path d="M395 790L355 917L495 833Z" fill="#0d1921" stroke="#FFFFFF"></path><path d="M1526 889L1435 843L1427 919Z" fill="#115473" stroke="#FFFFFF"></path><path d="M1526 889L1511 825L1435 843Z" fill="#123548" stroke="#FFFFFF"></path><path d="M1552 748L1552 654L1471 714Z" fill="#123548" stroke="#FFFFFF"></path><path d="M600 80L485 161L608 182Z" fill="#102734" stroke="#FFFFFF"></path><path d="M285 558L301 607L387 537Z" fill="#124c68" stroke="#FFFFFF"></path><path d="M285 558L387 537L293 480Z" fill="#123548" stroke="#FFFFFF"></path><path d="M857 0L740 0L750 89Z" fill="#12445d" stroke="#FFFFFF"></path><path d="M1217 0L1157 91L1228 119Z" fill="#112e3e" stroke="#FFFFFF"></path><path d="M1511 825L1552 748L1471 714Z" fill="#0d1921" stroke="#FFFFFF"></path><path d="M740 0L702 0L750 89Z" fill="#115473" stroke="#FFFFFF"></path><path d="M600 80L505 66L485 161Z" fill="#112e3e" stroke="#FFFFFF"></path><path d="M293 480L387 537L356 430Z" fill="#124c68" stroke="#FFFFFF"></path><path d="M186 732L261 826L314 688Z" fill="#123548" stroke="#FFFFFF"></path><path d="M280 349L293 480L356 430Z" fill="#071218" stroke="#FFFFFF"></path><path d="M1627 516L1553 419L1520 520Z" fill="#00080e" stroke="#FFFFFF"></path><path d="M1520 520L1553 419L1424 463Z" fill="#123548" stroke="#FFFFFF"></path><path d="M1466 119L1364 102L1373 183Z" fill="#0d1921" stroke="#FFFFFF"></path><path d="M1561 366L1553 419L1651 344Z" fill="#00080e" stroke="#FFFFFF"></path><path d="M380 148L362 277L448 261Z" fill="#071218" stroke="#FFFFFF"></path><path d="M372 345L280 349L356 430Z" fill="#102734" stroke="#FFFFFF"></path><path d="M303 904L395 790L261 826Z" fill="#123548" stroke="#FFFFFF"></path><path d="M303 904L355 917L395 790Z" fill="#124c68" stroke="#FFFFFF"></path><path d="M496 990L459 1080L588 1080Z" fill="#115473" stroke="#FFFFFF"></path><path d="M355 917L387 980L492 919Z" fill="#123548" stroke="#FFFFFF"></path><path d="M1511 825L1648 798L1552 748Z" fill="#115473" stroke="#FFFFFF"></path><path d="M1525 967L1526 889L1427 919Z" fill="#123d53" stroke="#FFFFFF"></path><path d="M1457 197L1373 183L1415 252Z" fill="#123d53" stroke="#FFFFFF"></path><path d="M1373 183L1364 102L1228 119Z" fill="#071218" stroke="#FFFFFF"></path><path d="M1536 239L1457 197L1415 252Z" fill="#123548" stroke="#FFFFFF"></path><path d="M1311 1080L1457 1010L1338 961Z" fill="#112e3e" stroke="#FFFFFF"></path><path d="M1346 0L1217 0L1228 119Z" fill="#0d1921" stroke="#FFFFFF"></path><path d="M387 980L459 1080L496 990Z" fill="#115473" stroke="#FFFFFF"></path><path d="M1627 516L1520 520L1552 654Z" fill="#115473" stroke="#FFFFFF"></path><path d="M1553 419L1561 366L1417 370Z" fill="#102734" stroke="#FFFFFF"></path><path d="M1648 798L1601 690L1552 748Z" fill="#112e3e" stroke="#FFFFFF"></path><path d="M1552 748L1601 690L1552 654Z" fill="#00080e" stroke="#FFFFFF"></path><path d="M600 0L505 66L600 80Z" fill="#123548" stroke="#FFFFFF"></path><path d="M485 161L380 148L448 261Z" fill="#102734" stroke="#FFFFFF"></path><path d="M702 0L600 0L669 91Z" fill="#124c68" stroke="#FFFFFF"></path><path d="M1601 690L1616 647L1552 654Z" fill="#00080e" stroke="#FFFFFF"></path><path d="M355 917L281 996L387 980Z" fill="#0e202b" stroke="#FFFFFF"></path><path d="M387 980L410 1080L459 1080Z" fill="#124c68" stroke="#FFFFFF"></path><path d="M261 826L395 790L314 688Z" fill="#123548" stroke="#FFFFFF"></path><path d="M294 296L372 345L362 277Z" fill="#071218" stroke="#FFFFFF"></path><path d="M294 296L280 349L372 345Z" fill="#102734" stroke="#FFFFFF"></path><path d="M208 477L205 568L285 558Z" fill="#0e202b" stroke="#FFFFFF"></path><path d="M1457 1010L1525 967L1427 919Z" fill="#123d53" stroke="#FFFFFF"></path><path d="M1641 891L1648 798L1511 825Z" fill="#12445d" stroke="#FFFFFF"></path><path d="M1729 717L1704 603L1616 647Z" fill="#0e202b" stroke="#FFFFFF"></path><path d="M1616 647L1627 516L1552 654Z" fill="#0d1921" stroke="#FFFFFF"></path><path d="M186 732L314 688L174 611Z" fill="#112e3e" stroke="#FFFFFF"></path><path d="M205 568L301 607L285 558Z" fill="#0d1921" stroke="#FFFFFF"></path><path d="M269 150L294 296L362 277Z" fill="#12445d" stroke="#FFFFFF"></path><path d="M277 1080L410 1080L387 980Z" fill="#071218" stroke="#FFFFFF"></path><path d="M1457 197L1466 119L1373 183Z" fill="#071218" stroke="#FFFFFF"></path><path d="M1561 366L1536 239L1417 370Z" fill="#102734" stroke="#FFFFFF"></path><path d="M1563 205L1536 239L1627 267Z" fill="#115473" stroke="#FFFFFF"></path><path d="M1311 1080L1451 1080L1457 1010Z" fill="#102734" stroke="#FFFFFF"></path><path d="M1457 1010L1539 1080L1525 967Z" fill="#0e202b" stroke="#FFFFFF"></path><path d="M371 82L380 148L485 161Z" fill="#0d1921" stroke="#FFFFFF"></path><path d="M371 82L485 161L505 66Z" fill="#071218" stroke="#FFFFFF"></path><path d="M1563 205L1466 119L1457 197Z" fill="#123d53" stroke="#FFFFFF"></path><path d="M1364 102L1346 0L1228 119Z" fill="#123548" stroke="#FFFFFF"></path><path d="M208 477L293 480L280 349Z" fill="#115473" stroke="#FFFFFF"></path><path d="M208 477L285 558L293 480Z" fill="#0d1921" stroke="#FFFFFF"></path><path d="M1740 564L1644 473L1627 516Z" fill="#0e202b" stroke="#FFFFFF"></path><path d="M1627 516L1644 473L1553 419Z" fill="#071218" stroke="#FFFFFF"></path><path d="M177 337L208 477L280 349Z" fill="#0e202b" stroke="#FFFFFF"></path><path d="M1467 0L1346 0L1364 102Z" fill="#12445d" stroke="#FFFFFF"></path><path d="M1641 891L1526 889L1525 967Z" fill="#071218" stroke="#FFFFFF"></path><path d="M1641 891L1511 825L1526 889Z" fill="#071218" stroke="#FFFFFF"></path><path d="M1616 647L1704 603L1627 516Z" fill="#102734" stroke="#FFFFFF"></path><path d="M1536 239L1563 205L1457 197Z" fill="#102734" stroke="#FFFFFF"></path><path d="M1466 119L1467 0L1364 102Z" fill="#112e3e" stroke="#FFFFFF"></path><path d="M1627 267L1536 239L1561 366Z" fill="#123548" stroke="#FFFFFF"></path><path d="M174 611L301 607L205 568Z" fill="#0e202b" stroke="#FFFFFF"></path><path d="M174 611L314 688L301 607Z" fill="#112e3e" stroke="#FFFFFF"></path><path d="M208 903L281 996L303 904Z" fill="#071218" stroke="#FFFFFF"></path><path d="M303 904L281 996L355 917Z" fill="#115473" stroke="#FFFFFF"></path><path d="M83 507L174 611L205 568Z" fill="#0d1921" stroke="#FFFFFF"></path><path d="M600 0L472 0L505 66Z" fill="#123548" stroke="#FFFFFF"></path><path d="M208 903L303 904L261 826Z" fill="#00080e" stroke="#FFFFFF"></path><path d="M472 0L371 82L505 66Z" fill="#112e3e" stroke="#FFFFFF"></path><path d="M380 148L269 150L362 277Z" fill="#0e202b" stroke="#FFFFFF"></path><path d="M294 296L177 337L280 349Z" fill="#0d1921" stroke="#FFFFFF"></path><path d="M1725 427L1651 344L1644 473Z" fill="#0d1921" stroke="#FFFFFF"></path><path d="M1644 473L1651 344L1553 419Z" fill="#112e3e" stroke="#FFFFFF"></path><path d="M1614 998L1641 891L1525 967Z" fill="#12445d" stroke="#FFFFFF"></path><path d="M1651 344L1627 267L1561 366Z" fill="#071218" stroke="#FFFFFF"></path><path d="M1729 717L1601 690L1648 798Z" fill="#0e202b" stroke="#FFFFFF"></path><path d="M1729 717L1616 647L1601 690Z" fill="#12445d" stroke="#FFFFFF"></path><path d="M1451 1080L1539 1080L1457 1010Z" fill="#123d53" stroke="#FFFFFF"></path><path d="M111 753L187 826L186 732Z" fill="#124c68" stroke="#FFFFFF"></path><path d="M186 732L187 826L261 826Z" fill="#12445d" stroke="#FFFFFF"></path><path d="M187 826L208 903L261 826Z" fill="#0e202b" stroke="#FFFFFF"></path><path d="M1539 1080L1614 998L1525 967Z" fill="#123548" stroke="#FFFFFF"></path><path d="M1627 267L1604 185L1563 205Z" fill="#071218" stroke="#FFFFFF"></path><path d="M1563 205L1522 65L1466 119Z" fill="#124c68" stroke="#FFFFFF"></path><path d="M1654 107L1604 185L1738 196Z" fill="#0d1921" stroke="#FFFFFF"></path><path d="M167 248L177 337L294 296Z" fill="#12445d" stroke="#FFFFFF"></path><path d="M208 477L83 507L205 568Z" fill="#0e202b" stroke="#FFFFFF"></path><path d="M1697 882L1699 816L1641 891Z" fill="#12445d" stroke="#FFFFFF"></path><path d="M1641 891L1699 816L1648 798Z" fill="#0d1921" stroke="#FFFFFF"></path><path d="M1604 185L1522 65L1563 205Z" fill="#115473" stroke="#FFFFFF"></path><path d="M371 82L269 150L380 148Z" fill="#0e202b" stroke="#FFFFFF"></path><path d="M261 120L269 150L371 82Z" fill="#071218" stroke="#FFFFFF"></path><path d="M1522 65L1467 0L1466 119Z" fill="#12445d" stroke="#FFFFFF"></path><path d="M1699 816L1729 717L1648 798Z" fill="#12445d" stroke="#FFFFFF"></path><path d="M1704 603L1740 564L1627 516Z" fill="#0d1921" stroke="#FFFFFF"></path><path d="M158 1080L277 1080L281 996Z" fill="#115473" stroke="#FFFFFF"></path><path d="M281 996L277 1080L387 980Z" fill="#115473" stroke="#FFFFFF"></path><path d="M1798 622L1740 564L1704 603Z" fill="#00080e" stroke="#FFFFFF"></path><path d="M1651 344L1757 285L1627 267Z" fill="#115473" stroke="#FFFFFF"></path><path d="M1740 564L1725 427L1644 473Z" fill="#071218" stroke="#FFFFFF"></path><path d="M1836 833L1852 743L1729 717Z" fill="#0e202b" stroke="#FFFFFF"></path><path d="M1742 1005L1697 882L1641 891Z" fill="#115473" stroke="#FFFFFF"></path><path d="M472 0L374 0L371 82Z" fill="#071218" stroke="#FFFFFF"></path><path d="M1725 427L1713 354L1651 344Z" fill="#102734" stroke="#FFFFFF"></path><path d="M271 0L261 120L371 82Z" fill="#12445d" stroke="#FFFFFF"></path><path d="M171 209L167 248L294 296Z" fill="#071218" stroke="#FFFFFF"></path><path d="M82 659L111 753L186 732Z" fill="#123d53" stroke="#FFFFFF"></path><path d="M120 832L175 959L208 903Z" fill="#102734" stroke="#FFFFFF"></path><path d="M208 903L175 959L281 996Z" fill="#115473" stroke="#FFFFFF"></path><path d="M82 659L186 732L174 611Z" fill="#123d53" stroke="#FFFFFF"></path><path d="M120 832L208 903L187 826Z" fill="#115473" stroke="#FFFFFF"></path><path d="M171 209L294 296L269 150Z" fill="#124c68" stroke="#FFFFFF"></path><path d="M177 337L115 385L208 477Z" fill="#112e3e" stroke="#FFFFFF"></path><path d="M111 753L120 832L187 826Z" fill="#071218" stroke="#FFFFFF"></path><path d="M67 295L115 385L177 337Z" fill="#071218" stroke="#FFFFFF"></path><path d="M115 385L98 451L208 477Z" fill="#102734" stroke="#FFFFFF"></path><path d="M83 507L82 659L174 611Z" fill="#123d53" stroke="#FFFFFF"></path><path d="M0 787L70 880L120 832Z" fill="#112e3e" stroke="#FFFFFF"></path><path d="M82 659L83 507L0 567Z" fill="#0e202b" stroke="#FFFFFF"></path><path d="M98 451L83 507L208 477Z" fill="#00080e" stroke="#FFFFFF"></path><path d="M161 105L171 209L269 150Z" fill="#00080e" stroke="#FFFFFF"></path><path d="M167 248L67 295L177 337Z" fill="#0d1921" stroke="#FFFFFF"></path><path d="M161 105L269 150L261 120Z" fill="#102734" stroke="#FFFFFF"></path><path d="M1628 0L1536 0L1522 65Z" fill="#071218" stroke="#FFFFFF"></path><path d="M1522 65L1536 0L1467 0Z" fill="#071218" stroke="#FFFFFF"></path><path d="M1654 107L1522 65L1604 185Z" fill="#124c68" stroke="#FFFFFF"></path><path d="M1539 1080L1650 1080L1614 998Z" fill="#102734" stroke="#FFFFFF"></path><path d="M1614 998L1742 1005L1641 891Z" fill="#0e202b" stroke="#FFFFFF"></path><path d="M1729 717L1798 622L1704 603Z" fill="#0e202b" stroke="#FFFFFF"></path><path d="M1740 564L1800 482L1725 427Z" fill="#0e202b" stroke="#FFFFFF"></path><path d="M1797 375L1757 285L1713 354Z" fill="#102734" stroke="#FFFFFF"></path><path d="M1852 743L1798 622L1729 717Z" fill="#112e3e" stroke="#FFFFFF"></path><path d="M1729 717L1699 816L1836 833Z" fill="#123d53" stroke="#FFFFFF"></path><path d="M1738 196L1604 185L1627 267Z" fill="#124c68" stroke="#FFFFFF"></path><path d="M1757 285L1651 344L1713 354Z" fill="#12445d" stroke="#FFFFFF"></path><path d="M1834 507L1800 482L1740 564Z" fill="#00080e" stroke="#FFFFFF"></path><path d="M70 880L127 970L175 959Z" fill="#00080e" stroke="#FFFFFF"></path><path d="M175 959L158 1080L281 996Z" fill="#112e3e" stroke="#FFFFFF"></path><path d="M70 880L175 959L120 832Z" fill="#0d1921" stroke="#FFFFFF"></path><path d="M1797 375L1713 354L1725 427Z" fill="#071218" stroke="#FFFFFF"></path><path d="M374 0L271 0L371 82Z" fill="#123548" stroke="#FFFFFF"></path><path d="M1800 482L1797 375L1725 427Z" fill="#0e202b" stroke="#FFFFFF"></path><path d="M0 787L120 832L111 753Z" fill="#12445d" stroke="#FFFFFF"></path><path d="M0 701L111 753L82 659Z" fill="#12445d" stroke="#FFFFFF"></path><path d="M1806 278L1738 196L1757 285Z" fill="#123d53" stroke="#FFFFFF"></path><path d="M1757 285L1738 196L1627 267Z" fill="#071218" stroke="#FFFFFF"></path><path d="M1650 1080L1742 1005L1614 998Z" fill="#124c68" stroke="#FFFFFF"></path><path d="M121 1080L158 1080L127 970Z" fill="#115473" stroke="#FFFFFF"></path><path d="M127 970L158 1080L175 959Z" fill="#112e3e" stroke="#FFFFFF"></path><path d="M1920 565L1834 507L1798 622Z" fill="#124c68" stroke="#FFFFFF"></path><path d="M1798 622L1834 507L1740 564Z" fill="#0e202b" stroke="#FFFFFF"></path><path d="M1800 482L1920 435L1797 375Z" fill="#112e3e" stroke="#FFFFFF"></path><path d="M180 0L161 105L261 120Z" fill="#102734" stroke="#FFFFFF"></path><path d="M82 164L67 295L167 248Z" fill="#0e202b" stroke="#FFFFFF"></path><path d="M0 349L0 471L98 451Z" fill="#0e202b" stroke="#FFFFFF"></path><path d="M82 164L167 248L171 209Z" fill="#123548" stroke="#FFFFFF"></path><path d="M0 567L0 602L82 659Z" fill="#124c68" stroke="#FFFFFF"></path><path d="M1727 0L1628 0L1654 107Z" fill="#00080e" stroke="#FFFFFF"></path><path d="M1654 107L1628 0L1522 65Z" fill="#123d53" stroke="#FFFFFF"></path><path d="M0 567L83 507L0 471Z" fill="#071218" stroke="#FFFFFF"></path><path d="M0 471L83 507L98 451Z" fill="#071218" stroke="#FFFFFF"></path><path d="M1836 833L1699 816L1697 882Z" fill="#112e3e" stroke="#FFFFFF"></path><path d="M0 602L0 701L82 659Z" fill="#00080e" stroke="#FFFFFF"></path><path d="M1797 375L1806 278L1757 285Z" fill="#112e3e" stroke="#FFFFFF"></path><path d="M1738 196L1752 123L1654 107Z" fill="#123548" stroke="#FFFFFF"></path><path d="M1920 334L1806 278L1797 375Z" fill="#0e202b" stroke="#FFFFFF"></path><path d="M1853 918L1836 833L1697 882Z" fill="#115473" stroke="#FFFFFF"></path><path d="M0 349L98 451L115 385Z" fill="#071218" stroke="#FFFFFF"></path><path d="M0 1004L127 970L70 880Z" fill="#124c68" stroke="#FFFFFF"></path><path d="M0 1004L121 1080L127 970Z" fill="#12445d" stroke="#FFFFFF"></path><path d="M1650 1080L1738 1080L1742 1005Z" fill="#071218" stroke="#FFFFFF"></path><path d="M1742 1005L1811 992L1697 882Z" fill="#112e3e" stroke="#FFFFFF"></path><path d="M0 701L0 787L111 753Z" fill="#102734" stroke="#FFFFFF"></path><path d="M1803 165L1752 123L1738 196Z" fill="#12445d" stroke="#FFFFFF"></path><path d="M161 105L82 164L171 209Z" fill="#115473" stroke="#FFFFFF"></path><path d="M67 295L0 349L115 385Z" fill="#102734" stroke="#FFFFFF"></path><path d="M90 89L82 164L161 105Z" fill="#0e202b" stroke="#FFFFFF"></path><path d="M271 0L180 0L261 120Z" fill="#071218" stroke="#FFFFFF"></path><path d="M0 257L0 349L67 295Z" fill="#0e202b" stroke="#FFFFFF"></path><path d="M1798 1080L1811 992L1742 1005Z" fill="#115473" stroke="#FFFFFF"></path><path d="M1920 837L1920 736L1852 743Z" fill="#115473" stroke="#FFFFFF"></path><path d="M0 787L0 887L70 880Z" fill="#071218" stroke="#FFFFFF"></path><path d="M1811 992L1853 918L1697 882Z" fill="#12445d" stroke="#FFFFFF"></path><path d="M1920 246L1803 165L1806 278Z" fill="#123548" stroke="#FFFFFF"></path><path d="M1806 278L1803 165L1738 196Z" fill="#0e202b" stroke="#FFFFFF"></path><path d="M1752 123L1727 0L1654 107Z" fill="#115473" stroke="#FFFFFF"></path><path d="M101 0L90 89L161 105Z" fill="#12445d" stroke="#FFFFFF"></path><path d="M82 164L0 257L67 295Z" fill="#0d1921" stroke="#FFFFFF"></path><path d="M1852 743L1920 620L1798 622Z" fill="#115473" stroke="#FFFFFF"></path><path d="M1834 507L1920 435L1800 482Z" fill="#102734" stroke="#FFFFFF"></path><path d="M1920 736L1920 620L1852 743Z" fill="#123d53" stroke="#FFFFFF"></path><path d="M0 191L0 257L82 164Z" fill="#102734" stroke="#FFFFFF"></path><path d="M1920 620L1920 565L1798 622Z" fill="#0d1921" stroke="#FFFFFF"></path><path d="M1738 1080L1798 1080L1742 1005Z" fill="#102734" stroke="#FFFFFF"></path><path d="M1920 1005L1920 875L1853 918Z" fill="#123d53" stroke="#FFFFFF"></path><path d="M1813 120L1727 0L1752 123Z" fill="#124c68" stroke="#FFFFFF"></path><path d="M1920 837L1836 833L1920 875Z" fill="#0d1921" stroke="#FFFFFF"></path><path d="M1920 837L1852 743L1836 833Z" fill="#071218" stroke="#FFFFFF"></path><path d="M1920 565L1920 435L1834 507Z" fill="#12445d" stroke="#FFFFFF"></path><path d="M1920 159L1813 120L1803 165Z" fill="#115473" stroke="#FFFFFF"></path><path d="M1803 165L1813 120L1752 123Z" fill="#123d53" stroke="#FFFFFF"></path><path d="M0 887L0 1004L70 880Z" fill="#123d53" stroke="#FFFFFF"></path><path d="M0 104L0 191L82 164Z" fill="#071218" stroke="#FFFFFF"></path><path d="M1920 875L1836 833L1853 918Z" fill="#12445d" stroke="#FFFFFF"></path><path d="M180 0L101 0L161 105Z" fill="#112e3e" stroke="#FFFFFF"></path><path d="M90 89L0 104L82 164Z" fill="#123548" stroke="#FFFFFF"></path><path d="M1920 435L1920 334L1797 375Z" fill="#12445d" stroke="#FFFFFF"></path><path d="M1920 1005L1853 918L1811 992Z" fill="#123d53" stroke="#FFFFFF"></path><path d="M0 1004L0 1080L121 1080Z" fill="#112e3e" stroke="#FFFFFF"></path><path d="M1920 334L1920 246L1806 278Z" fill="#102734" stroke="#FFFFFF"></path><path d="M1813 120L1849 0L1727 0Z" fill="#0d1921" stroke="#FFFFFF"></path><path d="M0 0L0 104L90 89Z" fill="#115473" stroke="#FFFFFF"></path><path d="M1920 1080L1920 1005L1811 992Z" fill="#102734" stroke="#FFFFFF"></path><path d="M1920 246L1920 159L1803 165Z" fill="#102734" stroke="#FFFFFF"></path><path d="M1920 111L1849 0L1813 120Z" fill="#123548" stroke="#FFFFFF"></path><path d="M1798 1080L1920 1080L1811 992Z" fill="#0d1921" stroke="#FFFFFF"></path><path d="M1920 159L1920 111L1813 120Z" fill="#102734" stroke="#FFFFFF"></path><path d="M101 0L0 0L90 89Z" fill="#00080e" stroke="#FFFFFF"></path><path d="M1920 111L1920 0L1849 0Z" fill="#0e202b" stroke="#FFFFFF"></path></g></svg>