<svg id="visual" viewBox="0 0 1920 1080" width="1920" height="1080" xmlns="http://www.w3.org/2000/svg" xmlns:xlink="http://www.w3.org/1999/xlink" version="1.1"><g stroke-width="1" stroke-linejoin="bevel"><path d="M905.5 496.9L1016.5 483.9L919.5 398.7Z" fill="#246688" stroke="#246688"></path><path d="M1016.5 483.9L1023.5 395.7L919.5 398.7Z" fill="#0c2435" stroke="#0c2435"></path><path d="M905.5 496.9L1017.5 588.1L1016.5 483.9Z" fill="#277297" stroke="#277297"></path><path d="M1016.5 483.9L1117.6 470.9L1023.5 395.7Z" fill="#0c2435" stroke="#0c2435"></path><path d="M1023.5 395.7L1005.5 305.5L919.5 398.7Z" fill="#19435d" stroke="#19435d"></path><path d="M905.5 496.9L903.5 605.1L1017.5 588.1Z" fill="#0c2435" stroke="#0c2435"></path><path d="M801.4 380.7L805.4 508.9L905.5 496.9Z" fill="#277297" stroke="#277297"></path><path d="M905.5 496.9L820.4 599.1L903.5 605.1Z" fill="#277297" stroke="#277297"></path><path d="M801.4 380.7L905.5 496.9L919.5 398.7Z" fill="#277297" stroke="#277297"></path><path d="M1099.6 590.1L1117.6 470.9L1016.5 483.9Z" fill="#1d4e6b" stroke="#1d4e6b"></path><path d="M1023.5 395.7L1107.6 280.5L1005.5 305.5Z" fill="#112e42" stroke="#112e42"></path><path d="M1005.5 305.5L927.5 288.5L919.5 398.7Z" fill="#081a28" stroke="#081a28"></path><path d="M927.5 288.5L801.4 380.7L919.5 398.7Z" fill="#246688" stroke="#246688"></path><path d="M1117.6 470.9L1129.6 408.7L1023.5 395.7Z" fill="#0c2435" stroke="#0c2435"></path><path d="M1094.6 679.3L1099.6 590.1L1017.5 588.1Z" fill="#00101c" stroke="#00101c"></path><path d="M1017.5 588.1L1099.6 590.1L1016.5 483.9Z" fill="#205a7a" stroke="#205a7a"></path><path d="M1117.6 470.9L1204.6 470.9L1129.6 408.7Z" fill="#112e42" stroke="#112e42"></path><path d="M805.4 508.9L820.4 599.1L905.5 496.9Z" fill="#081a28" stroke="#081a28"></path><path d="M1129.6 408.7L1107.6 280.5L1023.5 395.7Z" fill="#0c2435" stroke="#0c2435"></path><path d="M996.5 179.4L893.5 211.4L927.5 288.5Z" fill="#112e42" stroke="#112e42"></path><path d="M893.5 211.4L796.4 288.5L927.5 288.5Z" fill="#1d4e6b" stroke="#1d4e6b"></path><path d="M927.5 288.5L796.4 288.5L801.4 380.7Z" fill="#1d4e6b" stroke="#1d4e6b"></path><path d="M801.4 380.7L718.4 484.9L805.4 508.9Z" fill="#081a28" stroke="#081a28"></path><path d="M891.5 682.3L993.5 682.3L903.5 605.1Z" fill="#112e42" stroke="#112e42"></path><path d="M903.5 605.1L993.5 682.3L1017.5 588.1Z" fill="#112e42" stroke="#112e42"></path><path d="M820.4 599.1L891.5 682.3L903.5 605.1Z" fill="#246688" stroke="#246688"></path><path d="M688.4 373.7L718.4 484.9L801.4 380.7Z" fill="#1d4e6b" stroke="#1d4e6b"></path><path d="M805.4 508.9L699.4 608.1L820.4 599.1Z" fill="#277297" stroke="#277297"></path><path d="M820.4 599.1L819.4 676.3L891.5 682.3Z" fill="#112e42" stroke="#112e42"></path><path d="M1209.6 593.1L1204.6 470.9L1117.6 470.9Z" fill="#15384f" stroke="#15384f"></path><path d="M1129.6 408.7L1206.6 281.5L1107.6 280.5Z" fill="#15384f" stroke="#15384f"></path><path d="M996.5 179.4L927.5 288.5L1005.5 305.5Z" fill="#1d4e6b" stroke="#1d4e6b"></path><path d="M699.4 608.1L819.4 676.3L820.4 599.1Z" fill="#15384f" stroke="#15384f"></path><path d="M993.5 682.3L1094.6 679.3L1017.5 588.1Z" fill="#15384f" stroke="#15384f"></path><path d="M1099.6 590.1L1209.6 593.1L1117.6 470.9Z" fill="#00101c" stroke="#00101c"></path><path d="M1204.6 470.9L1219.6 402.7L1129.6 408.7Z" fill="#1d4e6b" stroke="#1d4e6b"></path><path d="M1097.6 214.4L996.5 179.4L1005.5 305.5Z" fill="#15384f" stroke="#15384f"></path><path d="M1206.6 281.5L1097.6 214.4L1107.6 280.5Z" fill="#0c2435" stroke="#0c2435"></path><path d="M1107.6 280.5L1097.6 214.4L1005.5 305.5Z" fill="#00101c" stroke="#00101c"></path><path d="M718.4 297.5L801.4 380.7L796.4 288.5Z" fill="#112e42" stroke="#112e42"></path><path d="M718.4 297.5L688.4 373.7L801.4 380.7Z" fill="#00101c" stroke="#00101c"></path><path d="M704.4 209.4L718.4 297.5L796.4 288.5Z" fill="#15384f" stroke="#15384f"></path><path d="M1192.6 697.3L1209.6 593.1L1099.6 590.1Z" fill="#15384f" stroke="#15384f"></path><path d="M1204.6 470.9L1296.7 471.9L1219.6 402.7Z" fill="#15384f" stroke="#15384f"></path><path d="M606.3 487.9L699.4 608.1L718.4 484.9Z" fill="#1d4e6b" stroke="#1d4e6b"></path><path d="M718.4 484.9L699.4 608.1L805.4 508.9Z" fill="#277297" stroke="#277297"></path><path d="M1219.6 402.7L1206.6 281.5L1129.6 408.7Z" fill="#297ea6" stroke="#297ea6"></path><path d="M889.5 99.2L797.4 176.4L893.5 211.4Z" fill="#0c2435" stroke="#0c2435"></path><path d="M893.5 211.4L797.4 176.4L796.4 288.5Z" fill="#277297" stroke="#277297"></path><path d="M920.5 801.5L1020.5 775.5L993.5 682.3Z" fill="#205a7a" stroke="#205a7a"></path><path d="M993.5 682.3L1020.5 775.5L1094.6 679.3Z" fill="#15384f" stroke="#15384f"></path><path d="M1094.6 679.3L1192.6 697.3L1099.6 590.1Z" fill="#112e42" stroke="#112e42"></path><path d="M920.5 801.5L993.5 682.3L891.5 682.3Z" fill="#15384f" stroke="#15384f"></path><path d="M1092.6 773.5L1192.6 697.3L1094.6 679.3Z" fill="#277297" stroke="#277297"></path><path d="M1314.7 574.1L1296.7 471.9L1209.6 593.1Z" fill="#1d4e6b" stroke="#1d4e6b"></path><path d="M1209.6 593.1L1296.7 471.9L1204.6 470.9Z" fill="#1d4e6b" stroke="#1d4e6b"></path><path d="M1219.6 402.7L1300.7 309.5L1206.6 281.5Z" fill="#297ea6" stroke="#297ea6"></path><path d="M706.4 703.3L816.4 768.5L819.4 676.3Z" fill="#246688" stroke="#246688"></path><path d="M819.4 676.3L816.4 768.5L891.5 682.3Z" fill="#00101c" stroke="#00101c"></path><path d="M1093.6 109.2L1011.5 113.2L996.5 179.4Z" fill="#277297" stroke="#277297"></path><path d="M996.5 179.4L889.5 99.2L893.5 211.4Z" fill="#00101c" stroke="#00101c"></path><path d="M1093.6 109.2L996.5 179.4L1097.6 214.4Z" fill="#081a28" stroke="#081a28"></path><path d="M1020.5 775.5L1092.6 773.5L1094.6 679.3Z" fill="#19435d" stroke="#19435d"></path><path d="M816.4 768.5L920.5 801.5L891.5 682.3Z" fill="#246688" stroke="#246688"></path><path d="M1020.5 775.5L1114.6 899.6L1092.6 773.5Z" fill="#246688" stroke="#246688"></path><path d="M797.4 176.4L704.4 209.4L796.4 288.5Z" fill="#081a28" stroke="#081a28"></path><path d="M605.3 283.5L600.3 401.7L688.4 373.7Z" fill="#112e42" stroke="#112e42"></path><path d="M600.3 401.7L718.4 484.9L688.4 373.7Z" fill="#277297" stroke="#277297"></path><path d="M600.3 401.7L606.3 487.9L718.4 484.9Z" fill="#0c2435" stroke="#0c2435"></path><path d="M699.4 608.1L706.4 703.3L819.4 676.3Z" fill="#297ea6" stroke="#297ea6"></path><path d="M592.3 690.3L706.4 703.3L699.4 608.1Z" fill="#246688" stroke="#246688"></path><path d="M1296.7 471.9L1309.7 382.7L1219.6 402.7Z" fill="#19435d" stroke="#19435d"></path><path d="M605.3 283.5L688.4 373.7L718.4 297.5Z" fill="#246688" stroke="#246688"></path><path d="M1011.5 113.2L889.5 99.2L996.5 179.4Z" fill="#081a28" stroke="#081a28"></path><path d="M797.4 176.4L791.4 107.2L704.4 209.4Z" fill="#0c2435" stroke="#0c2435"></path><path d="M1300.7 309.5L1229.6 207.4L1206.6 281.5Z" fill="#297ea6" stroke="#297ea6"></path><path d="M1206.6 281.5L1229.6 207.4L1097.6 214.4Z" fill="#081a28" stroke="#081a28"></path><path d="M1206.6 103.2L1093.6 109.2L1097.6 214.4Z" fill="#19435d" stroke="#19435d"></path><path d="M1011.5 113.2L1000.5 0L889.5 99.2Z" fill="#112e42" stroke="#112e42"></path><path d="M1309.7 382.7L1300.7 309.5L1219.6 402.7Z" fill="#15384f" stroke="#15384f"></path><path d="M1330.7 688.3L1314.7 574.1L1209.6 593.1Z" fill="#1d4e6b" stroke="#1d4e6b"></path><path d="M1296.7 471.9L1401.7 410.7L1309.7 382.7Z" fill="#297ea6" stroke="#297ea6"></path><path d="M606.3 487.9L607.3 605.1L699.4 608.1Z" fill="#246688" stroke="#246688"></path><path d="M503.3 580.1L607.3 605.1L606.3 487.9Z" fill="#277297" stroke="#277297"></path><path d="M889.5 99.2L791.4 107.2L797.4 176.4Z" fill="#15384f" stroke="#15384f"></path><path d="M594.3 194.4L605.3 283.5L704.4 209.4Z" fill="#1d4e6b" stroke="#1d4e6b"></path><path d="M704.4 209.4L605.3 283.5L718.4 297.5Z" fill="#246688" stroke="#246688"></path><path d="M706.4 703.3L719.4 790.5L816.4 768.5Z" fill="#081a28" stroke="#081a28"></path><path d="M827.4 892.6L922.5 868.6L920.5 801.5Z" fill="#081a28" stroke="#081a28"></path><path d="M609.3 800.5L719.4 790.5L706.4 703.3Z" fill="#205a7a" stroke="#205a7a"></path><path d="M827.4 892.6L920.5 801.5L816.4 768.5Z" fill="#246688" stroke="#246688"></path><path d="M920.5 801.5L995.5 892.6L1020.5 775.5Z" fill="#297ea6" stroke="#297ea6"></path><path d="M1417.7 294.5L1297.7 200.4L1300.7 309.5Z" fill="#246688" stroke="#246688"></path><path d="M1300.7 309.5L1297.7 200.4L1229.6 207.4Z" fill="#205a7a" stroke="#205a7a"></path><path d="M1229.6 207.4L1206.6 103.2L1097.6 214.4Z" fill="#1d4e6b" stroke="#1d4e6b"></path><path d="M1092.6 773.5L1200.6 803.5L1192.6 697.3Z" fill="#19435d" stroke="#19435d"></path><path d="M1192.6 697.3L1330.7 688.3L1209.6 593.1Z" fill="#081a28" stroke="#081a28"></path><path d="M1114.6 899.6L1200.6 803.5L1092.6 773.5Z" fill="#081a28" stroke="#081a28"></path><path d="M1297.7 200.4L1206.6 103.2L1229.6 207.4Z" fill="#081a28" stroke="#081a28"></path><path d="M1097.6 0L1000.5 0L1011.5 113.2Z" fill="#081a28" stroke="#081a28"></path><path d="M491.3 378.7L524.3 480.9L600.3 401.7Z" fill="#1d4e6b" stroke="#1d4e6b"></path><path d="M600.3 401.7L524.3 480.9L606.3 487.9Z" fill="#19435d" stroke="#19435d"></path><path d="M607.3 605.1L592.3 690.3L699.4 608.1Z" fill="#205a7a" stroke="#205a7a"></path><path d="M521.3 682.3L592.3 690.3L607.3 605.1Z" fill="#19435d" stroke="#19435d"></path><path d="M922.5 868.6L995.5 892.6L920.5 801.5Z" fill="#0c2435" stroke="#0c2435"></path><path d="M1299.7 783.5L1330.7 688.3L1192.6 697.3Z" fill="#19435d" stroke="#19435d"></path><path d="M1314.7 574.1L1399.7 506.9L1296.7 471.9Z" fill="#297ea6" stroke="#297ea6"></path><path d="M1309.7 382.7L1417.7 294.5L1300.7 309.5Z" fill="#205a7a" stroke="#205a7a"></path><path d="M699.4 82.2L594.3 194.4L704.4 209.4Z" fill="#15384f" stroke="#15384f"></path><path d="M605.3 283.5L513.3 303.5L600.3 401.7Z" fill="#297ea6" stroke="#297ea6"></path><path d="M1410.7 606.1L1399.7 506.9L1314.7 574.1Z" fill="#081a28" stroke="#081a28"></path><path d="M1399.7 506.9L1401.7 410.7L1296.7 471.9Z" fill="#297ea6" stroke="#297ea6"></path><path d="M789.4 0L699.4 82.2L791.4 107.2Z" fill="#0c2435" stroke="#0c2435"></path><path d="M791.4 107.2L699.4 82.2L704.4 209.4Z" fill="#1d4e6b" stroke="#1d4e6b"></path><path d="M789.4 0L791.4 107.2L889.5 99.2Z" fill="#19435d" stroke="#19435d"></path><path d="M1097.6 0L1011.5 113.2L1093.6 109.2Z" fill="#112e42" stroke="#112e42"></path><path d="M719.4 790.5L827.4 892.6L816.4 768.5Z" fill="#112e42" stroke="#112e42"></path><path d="M922.5 868.6L894.5 962.8L995.5 892.6Z" fill="#246688" stroke="#246688"></path><path d="M695.4 863.6L827.4 892.6L719.4 790.5Z" fill="#246688" stroke="#246688"></path><path d="M1000.5 0L892.5 0L889.5 99.2Z" fill="#205a7a" stroke="#205a7a"></path><path d="M594.3 194.4L513.3 303.5L605.3 283.5Z" fill="#205a7a" stroke="#205a7a"></path><path d="M418.2 584.1L503.3 580.1L401.2 479.9Z" fill="#112e42" stroke="#112e42"></path><path d="M524.3 480.9L503.3 580.1L606.3 487.9Z" fill="#277297" stroke="#277297"></path><path d="M513.3 303.5L491.3 378.7L600.3 401.7Z" fill="#0c2435" stroke="#0c2435"></path><path d="M995.5 892.6L1114.6 899.6L1020.5 775.5Z" fill="#246688" stroke="#246688"></path><path d="M1200.6 803.5L1299.7 783.5L1192.6 697.3Z" fill="#246688" stroke="#246688"></path><path d="M1008.5 1000.8L1114.6 899.6L995.5 892.6Z" fill="#246688" stroke="#246688"></path><path d="M1214.6 869.6L1299.7 783.5L1200.6 803.5Z" fill="#277297" stroke="#277297"></path><path d="M1330.7 688.3L1410.7 606.1L1314.7 574.1Z" fill="#246688" stroke="#246688"></path><path d="M1206.6 103.2L1097.6 0L1093.6 109.2Z" fill="#1d4e6b" stroke="#1d4e6b"></path><path d="M1419.7 701.3L1410.7 606.1L1330.7 688.3Z" fill="#0c2435" stroke="#0c2435"></path><path d="M1399.7 506.9L1521.8 476.9L1401.7 410.7Z" fill="#246688" stroke="#246688"></path><path d="M892.5 0L789.4 0L889.5 99.2Z" fill="#00101c" stroke="#00101c"></path><path d="M609.3 800.5L706.4 703.3L592.3 690.3Z" fill="#19435d" stroke="#19435d"></path><path d="M609.3 800.5L695.4 863.6L719.4 790.5Z" fill="#246688" stroke="#246688"></path><path d="M1401.7 410.7L1417.7 294.5L1309.7 382.7Z" fill="#15384f" stroke="#15384f"></path><path d="M1297.7 200.4L1315.7 111.2L1206.6 103.2Z" fill="#297ea6" stroke="#297ea6"></path><path d="M1206.6 103.2L1206.6 0L1097.6 0Z" fill="#297ea6" stroke="#297ea6"></path><path d="M1523.8 391.7L1417.7 294.5L1401.7 410.7Z" fill="#19435d" stroke="#19435d"></path><path d="M1114.6 899.6L1214.6 869.6L1200.6 803.5Z" fill="#1d4e6b" stroke="#1d4e6b"></path><path d="M511.3 775.5L609.3 800.5L592.3 690.3Z" fill="#1d4e6b" stroke="#1d4e6b"></path><path d="M503.3 580.1L521.3 682.3L607.3 605.1Z" fill="#277297" stroke="#277297"></path><path d="M1422.7 198.4L1315.7 111.2L1297.7 200.4Z" fill="#19435d" stroke="#19435d"></path><path d="M799.4 991.8L894.5 962.8L827.4 892.6Z" fill="#0c2435" stroke="#0c2435"></path><path d="M827.4 892.6L894.5 962.8L922.5 868.6Z" fill="#246688" stroke="#246688"></path><path d="M1312.7 0L1206.6 0L1206.6 103.2Z" fill="#081a28" stroke="#081a28"></path><path d="M625.3 0L587.3 82.2L699.4 82.2Z" fill="#277297" stroke="#277297"></path><path d="M699.4 82.2L587.3 82.2L594.3 194.4Z" fill="#15384f" stroke="#15384f"></path><path d="M594.3 194.4L495.3 195.4L513.3 303.5Z" fill="#19435d" stroke="#19435d"></path><path d="M1403.7 793.5L1419.7 701.3L1330.7 688.3Z" fill="#081a28" stroke="#081a28"></path><path d="M1410.7 606.1L1503.8 587.1L1399.7 506.9Z" fill="#0c2435" stroke="#0c2435"></path><path d="M1403.7 793.5L1330.7 688.3L1299.7 783.5Z" fill="#081a28" stroke="#081a28"></path><path d="M789.4 0L687.4 0L699.4 82.2Z" fill="#246688" stroke="#246688"></path><path d="M521.3 93.2L495.3 195.4L594.3 194.4Z" fill="#15384f" stroke="#15384f"></path><path d="M400.2 279.5L409.2 395.7L491.3 378.7Z" fill="#0c2435" stroke="#0c2435"></path><path d="M1417.7 294.5L1422.7 198.4L1297.7 200.4Z" fill="#19435d" stroke="#19435d"></path><path d="M1315.7 111.2L1312.7 0L1206.6 103.2Z" fill="#1d4e6b" stroke="#1d4e6b"></path><path d="M1515.8 280.5L1422.7 198.4L1417.7 294.5Z" fill="#205a7a" stroke="#205a7a"></path><path d="M1293.7 978.8L1293.7 877.6L1214.6 869.6Z" fill="#112e42" stroke="#112e42"></path><path d="M1214.6 869.6L1293.7 877.6L1299.7 783.5Z" fill="#297ea6" stroke="#297ea6"></path><path d="M1202.6 982.8L1214.6 869.6L1114.6 899.6Z" fill="#1d4e6b" stroke="#1d4e6b"></path><path d="M609.3 800.5L618.3 880.6L695.4 863.6Z" fill="#15384f" stroke="#15384f"></path><path d="M695.4 984.8L799.4 991.8L827.4 892.6Z" fill="#0c2435" stroke="#0c2435"></path><path d="M491.3 892.6L618.3 880.6L609.3 800.5Z" fill="#081a28" stroke="#081a28"></path><path d="M925.5 1080L1008.5 1000.8L894.5 962.8Z" fill="#00101c" stroke="#00101c"></path><path d="M894.5 962.8L1008.5 1000.8L995.5 892.6Z" fill="#0c2435" stroke="#0c2435"></path><path d="M403.2 688.3L511.3 775.5L521.3 682.3Z" fill="#081a28" stroke="#081a28"></path><path d="M521.3 682.3L511.3 775.5L592.3 690.3Z" fill="#15384f" stroke="#15384f"></path><path d="M418.2 584.1L521.3 682.3L503.3 580.1Z" fill="#205a7a" stroke="#205a7a"></path><path d="M400.2 279.5L491.3 378.7L513.3 303.5Z" fill="#1d4e6b" stroke="#1d4e6b"></path><path d="M491.3 378.7L401.2 479.9L524.3 480.9Z" fill="#297ea6" stroke="#297ea6"></path><path d="M401.2 479.9L503.3 580.1L524.3 480.9Z" fill="#297ea6" stroke="#297ea6"></path><path d="M409.2 395.7L401.2 479.9L491.3 378.7Z" fill="#081a28" stroke="#081a28"></path><path d="M695.4 984.8L827.4 892.6L695.4 863.6Z" fill="#0c2435" stroke="#0c2435"></path><path d="M1008.5 1000.8L1117.6 990.8L1114.6 899.6Z" fill="#205a7a" stroke="#205a7a"></path><path d="M1293.7 877.6L1403.7 793.5L1299.7 783.5Z" fill="#205a7a" stroke="#205a7a"></path><path d="M687.4 0L625.3 0L699.4 82.2Z" fill="#277297" stroke="#277297"></path><path d="M587.3 82.2L521.3 93.2L594.3 194.4Z" fill="#246688" stroke="#246688"></path><path d="M1528.8 703.3L1503.8 587.1L1419.7 701.3Z" fill="#0c2435" stroke="#0c2435"></path><path d="M1419.7 701.3L1503.8 587.1L1410.7 606.1Z" fill="#15384f" stroke="#15384f"></path><path d="M1503.8 587.1L1521.8 476.9L1399.7 506.9Z" fill="#00101c" stroke="#00101c"></path><path d="M508.3 0L521.3 93.2L587.3 82.2Z" fill="#19435d" stroke="#19435d"></path><path d="M495.3 195.4L400.2 279.5L513.3 303.5Z" fill="#246688" stroke="#246688"></path><path d="M1521.8 476.9L1523.8 391.7L1401.7 410.7Z" fill="#1d4e6b" stroke="#1d4e6b"></path><path d="M1512.8 104.2L1412.7 104.2L1422.7 198.4Z" fill="#0c2435" stroke="#0c2435"></path><path d="M1422.7 198.4L1412.7 104.2L1315.7 111.2Z" fill="#081a28" stroke="#081a28"></path><path d="M1412.7 104.2L1312.7 0L1315.7 111.2Z" fill="#246688" stroke="#246688"></path><path d="M1117.6 990.8L1202.6 982.8L1114.6 899.6Z" fill="#205a7a" stroke="#205a7a"></path><path d="M1293.7 877.6L1406.7 888.6L1403.7 793.5Z" fill="#112e42" stroke="#112e42"></path><path d="M387.2 193.4L400.2 279.5L495.3 195.4Z" fill="#15384f" stroke="#15384f"></path><path d="M308.2 504.9L418.2 584.1L401.2 479.9Z" fill="#19435d" stroke="#19435d"></path><path d="M1523.8 391.7L1515.8 280.5L1417.7 294.5Z" fill="#205a7a" stroke="#205a7a"></path><path d="M590.3 970.8L695.4 984.8L618.3 880.6Z" fill="#205a7a" stroke="#205a7a"></path><path d="M618.3 880.6L695.4 984.8L695.4 863.6Z" fill="#1d4e6b" stroke="#1d4e6b"></path><path d="M418.2 584.1L403.2 688.3L521.3 682.3Z" fill="#081a28" stroke="#081a28"></path><path d="M491.3 892.6L590.3 970.8L618.3 880.6Z" fill="#1d4e6b" stroke="#1d4e6b"></path><path d="M322.2 592.1L403.2 688.3L418.2 584.1Z" fill="#15384f" stroke="#15384f"></path><path d="M1515.8 280.5L1516.8 209.4L1422.7 198.4Z" fill="#246688" stroke="#246688"></path><path d="M1412.7 104.2L1429.7 0L1312.7 0Z" fill="#00101c" stroke="#00101c"></path><path d="M1600.8 281.5L1516.8 209.4L1515.8 280.5Z" fill="#19435d" stroke="#19435d"></path><path d="M1225.6 1080L1293.7 978.8L1202.6 982.8Z" fill="#0c2435" stroke="#0c2435"></path><path d="M1202.6 982.8L1293.7 978.8L1214.6 869.6Z" fill="#19435d" stroke="#19435d"></path><path d="M1225.6 1080L1202.6 982.8L1117.6 990.8Z" fill="#15384f" stroke="#15384f"></path><path d="M1502.8 778.5L1419.7 701.3L1403.7 793.5Z" fill="#081a28" stroke="#081a28"></path><path d="M1502.8 778.5L1528.8 703.3L1419.7 701.3Z" fill="#00101c" stroke="#00101c"></path><path d="M1627.8 476.9L1608.8 406.7L1521.8 476.9Z" fill="#15384f" stroke="#15384f"></path><path d="M1521.8 476.9L1608.8 406.7L1523.8 391.7Z" fill="#277297" stroke="#277297"></path><path d="M1293.7 978.8L1406.7 888.6L1293.7 877.6Z" fill="#277297" stroke="#277297"></path><path d="M398.2 117.2L495.3 195.4L521.3 93.2Z" fill="#15384f" stroke="#15384f"></path><path d="M398.2 117.2L387.2 193.4L495.3 195.4Z" fill="#1d4e6b" stroke="#1d4e6b"></path><path d="M308.2 504.9L401.2 479.9L296.2 404.7Z" fill="#19435d" stroke="#19435d"></path><path d="M308.2 504.9L322.2 592.1L418.2 584.1Z" fill="#19435d" stroke="#19435d"></path><path d="M809.4 1080L894.5 962.8L799.4 991.8Z" fill="#15384f" stroke="#15384f"></path><path d="M809.4 1080L925.5 1080L894.5 962.8Z" fill="#277297" stroke="#277297"></path><path d="M1008.5 1000.8L1100.6 1080L1117.6 990.8Z" fill="#246688" stroke="#246688"></path><path d="M925.5 1080L1002.5 1080L1008.5 1000.8Z" fill="#277297" stroke="#277297"></path><path d="M491.3 892.6L609.3 800.5L511.3 775.5Z" fill="#205a7a" stroke="#205a7a"></path><path d="M703.4 1080L809.4 1080L799.4 991.8Z" fill="#1d4e6b" stroke="#1d4e6b"></path><path d="M1406.7 888.6L1502.8 778.5L1403.7 793.5Z" fill="#081a28" stroke="#081a28"></path><path d="M625.3 0L508.3 0L587.3 82.2Z" fill="#1d4e6b" stroke="#1d4e6b"></path><path d="M414.2 798.5L491.3 892.6L511.3 775.5Z" fill="#15384f" stroke="#15384f"></path><path d="M1002.5 1080L1100.6 1080L1008.5 1000.8Z" fill="#19435d" stroke="#19435d"></path><path d="M403.2 688.3L414.2 798.5L511.3 775.5Z" fill="#19435d" stroke="#19435d"></path><path d="M703.4 1080L799.4 991.8L695.4 984.8Z" fill="#297ea6" stroke="#297ea6"></path><path d="M401.2 479.9L409.2 395.7L296.2 404.7Z" fill="#277297" stroke="#277297"></path><path d="M403.2 688.3L301.2 776.5L414.2 798.5Z" fill="#081a28" stroke="#081a28"></path><path d="M296.2 404.7L409.2 395.7L288.2 287.5Z" fill="#277297" stroke="#277297"></path><path d="M412.2 0L398.2 117.2L521.3 93.2Z" fill="#246688" stroke="#246688"></path><path d="M288.2 287.5L409.2 395.7L400.2 279.5Z" fill="#081a28" stroke="#081a28"></path><path d="M1627.8 476.9L1521.8 476.9L1616.8 590.1Z" fill="#1d4e6b" stroke="#1d4e6b"></path><path d="M1523.8 391.7L1600.8 281.5L1515.8 280.5Z" fill="#1d4e6b" stroke="#1d4e6b"></path><path d="M1512.8 104.2L1422.7 198.4L1516.8 209.4Z" fill="#112e42" stroke="#112e42"></path><path d="M1512.8 104.2L1429.7 0L1412.7 104.2Z" fill="#15384f" stroke="#15384f"></path><path d="M1613.8 180.4L1512.8 104.2L1516.8 209.4Z" fill="#277297" stroke="#277297"></path><path d="M288.2 287.5L400.2 279.5L387.2 193.4Z" fill="#246688" stroke="#246688"></path><path d="M1608.8 406.7L1600.8 281.5L1523.8 391.7Z" fill="#205a7a" stroke="#205a7a"></path><path d="M1616.8 590.1L1503.8 587.1L1528.8 703.3Z" fill="#1d4e6b" stroke="#1d4e6b"></path><path d="M1616.8 590.1L1521.8 476.9L1503.8 587.1Z" fill="#0c2435" stroke="#0c2435"></path><path d="M1608.8 406.7L1697.9 285.5L1600.8 281.5Z" fill="#00101c" stroke="#00101c"></path><path d="M1625.8 700.3L1616.8 590.1L1528.8 703.3Z" fill="#277297" stroke="#277297"></path><path d="M596.3 1080L695.4 984.8L590.3 970.8Z" fill="#19435d" stroke="#19435d"></path><path d="M596.3 1080L703.4 1080L695.4 984.8Z" fill="#00101c" stroke="#00101c"></path><path d="M1100.6 1080L1225.6 1080L1117.6 990.8Z" fill="#1d4e6b" stroke="#1d4e6b"></path><path d="M1504.8 978.8L1520.8 894.6L1406.7 888.6Z" fill="#15384f" stroke="#15384f"></path><path d="M385.2 893.6L487.3 981.8L491.3 892.6Z" fill="#277297" stroke="#277297"></path><path d="M322.2 592.1L309.2 670.3L403.2 688.3Z" fill="#112e42" stroke="#112e42"></path><path d="M189.1 607.1L309.2 670.3L322.2 592.1Z" fill="#112e42" stroke="#112e42"></path><path d="M189.1 607.1L322.2 592.1L308.2 504.9Z" fill="#205a7a" stroke="#205a7a"></path><path d="M293.2 188.4L288.2 287.5L387.2 193.4Z" fill="#297ea6" stroke="#297ea6"></path><path d="M183.1 702.3L301.2 776.5L309.2 670.3Z" fill="#277297" stroke="#277297"></path><path d="M491.3 892.6L487.3 981.8L590.3 970.8Z" fill="#00101c" stroke="#00101c"></path><path d="M385.2 893.6L491.3 892.6L414.2 798.5Z" fill="#205a7a" stroke="#205a7a"></path><path d="M508.3 0L412.2 0L521.3 93.2Z" fill="#081a28" stroke="#081a28"></path><path d="M398.2 117.2L293.2 188.4L387.2 193.4Z" fill="#081a28" stroke="#081a28"></path><path d="M1600.8 281.5L1613.8 180.4L1516.8 209.4Z" fill="#0c2435" stroke="#0c2435"></path><path d="M1512.8 104.2L1508.8 0L1429.7 0Z" fill="#246688" stroke="#246688"></path><path d="M1697.9 285.5L1613.8 180.4L1600.8 281.5Z" fill="#19435d" stroke="#19435d"></path><path d="M1613.8 780.5L1528.8 703.3L1502.8 778.5Z" fill="#246688" stroke="#246688"></path><path d="M1613.8 780.5L1625.8 700.3L1528.8 703.3Z" fill="#081a28" stroke="#081a28"></path><path d="M1616.8 590.1L1712.9 477.9L1627.8 476.9Z" fill="#0c2435" stroke="#0c2435"></path><path d="M1520.8 894.6L1502.8 778.5L1406.7 888.6Z" fill="#00101c" stroke="#00101c"></path><path d="M1603.8 98.2L1508.8 0L1512.8 104.2Z" fill="#081a28" stroke="#081a28"></path><path d="M294.2 92.2L293.2 188.4L398.2 117.2Z" fill="#246688" stroke="#246688"></path><path d="M1428.7 1000.8L1406.7 888.6L1293.7 978.8Z" fill="#0c2435" stroke="#0c2435"></path><path d="M1225.6 1080L1312.7 1080L1293.7 978.8Z" fill="#277297" stroke="#277297"></path><path d="M296.2 878.6L385.2 893.6L414.2 798.5Z" fill="#205a7a" stroke="#205a7a"></path><path d="M519.3 1080L590.3 970.8L487.3 981.8Z" fill="#0c2435" stroke="#0c2435"></path><path d="M519.3 1080L596.3 1080L590.3 970.8Z" fill="#081a28" stroke="#081a28"></path><path d="M1312.7 1080L1428.7 1000.8L1293.7 978.8Z" fill="#277297" stroke="#277297"></path><path d="M309.2 670.3L301.2 776.5L403.2 688.3Z" fill="#1d4e6b" stroke="#1d4e6b"></path><path d="M198.1 491.9L308.2 504.9L296.2 404.7Z" fill="#297ea6" stroke="#297ea6"></path><path d="M1520.8 894.6L1613.8 780.5L1502.8 778.5Z" fill="#112e42" stroke="#112e42"></path><path d="M1613.8 180.4L1603.8 98.2L1512.8 104.2Z" fill="#205a7a" stroke="#205a7a"></path><path d="M314.2 0L294.2 92.2L398.2 117.2Z" fill="#15384f" stroke="#15384f"></path><path d="M216.1 286.5L204.1 377.7L288.2 287.5Z" fill="#19435d" stroke="#19435d"></path><path d="M1718.9 597.1L1712.9 477.9L1616.8 590.1Z" fill="#246688" stroke="#246688"></path><path d="M1627.8 476.9L1712.9 477.9L1608.8 406.7Z" fill="#205a7a" stroke="#205a7a"></path><path d="M1613.8 180.4L1709.9 87.2L1603.8 98.2Z" fill="#081a28" stroke="#081a28"></path><path d="M1718.9 597.1L1616.8 590.1L1704.9 695.3Z" fill="#1d4e6b" stroke="#1d4e6b"></path><path d="M216.1 286.5L288.2 287.5L293.2 188.4Z" fill="#112e42" stroke="#112e42"></path><path d="M288.2 287.5L204.1 377.7L296.2 404.7Z" fill="#081a28" stroke="#081a28"></path><path d="M1520.8 894.6L1622.8 900.6L1613.8 780.5Z" fill="#00101c" stroke="#00101c"></path><path d="M1428.7 1000.8L1504.8 978.8L1406.7 888.6Z" fill="#205a7a" stroke="#205a7a"></path><path d="M1520.8 1080L1504.8 978.8L1428.7 1000.8Z" fill="#112e42" stroke="#112e42"></path><path d="M194.1 210.4L216.1 286.5L293.2 188.4Z" fill="#0c2435" stroke="#0c2435"></path><path d="M204.1 377.7L198.1 491.9L296.2 404.7Z" fill="#1d4e6b" stroke="#1d4e6b"></path><path d="M1717.9 372.7L1697.9 285.5L1608.8 406.7Z" fill="#1d4e6b" stroke="#1d4e6b"></path><path d="M418.2 1080L519.3 1080L487.3 981.8Z" fill="#205a7a" stroke="#205a7a"></path><path d="M1712.9 477.9L1717.9 372.7L1608.8 406.7Z" fill="#246688" stroke="#246688"></path><path d="M1704.9 695.3L1616.8 590.1L1625.8 700.3Z" fill="#112e42" stroke="#112e42"></path><path d="M1712.9 477.9L1812.9 478.9L1717.9 372.7Z" fill="#081a28" stroke="#081a28"></path><path d="M1704.9 695.3L1625.8 700.3L1613.8 780.5Z" fill="#246688" stroke="#246688"></path><path d="M313.2 990.8L396.2 991.8L385.2 893.6Z" fill="#277297" stroke="#277297"></path><path d="M385.2 893.6L396.2 991.8L487.3 981.8Z" fill="#15384f" stroke="#15384f"></path><path d="M1312.7 1080L1422.7 1080L1428.7 1000.8Z" fill="#1d4e6b" stroke="#1d4e6b"></path><path d="M115.1 486.9L189.1 607.1L198.1 491.9Z" fill="#277297" stroke="#277297"></path><path d="M198.1 491.9L189.1 607.1L308.2 504.9Z" fill="#246688" stroke="#246688"></path><path d="M301.2 776.5L296.2 878.6L414.2 798.5Z" fill="#081a28" stroke="#081a28"></path><path d="M194.1 864.6L296.2 878.6L301.2 776.5Z" fill="#205a7a" stroke="#205a7a"></path><path d="M1722.9 796.5L1704.9 695.3L1613.8 780.5Z" fill="#00101c" stroke="#00101c"></path><path d="M412.2 0L314.2 0L398.2 117.2Z" fill="#1d4e6b" stroke="#1d4e6b"></path><path d="M195.1 96.2L194.1 210.4L293.2 188.4Z" fill="#00101c" stroke="#00101c"></path><path d="M89.1 311.5L99.1 399.7L204.1 377.7Z" fill="#0c2435" stroke="#0c2435"></path><path d="M99.1 399.7L115.1 486.9L198.1 491.9Z" fill="#205a7a" stroke="#205a7a"></path><path d="M195.1 96.2L293.2 188.4L294.2 92.2Z" fill="#00101c" stroke="#00101c"></path><path d="M1625.8 964.8L1520.8 894.6L1504.8 978.8Z" fill="#112e42" stroke="#112e42"></path><path d="M1625.8 964.8L1622.8 900.6L1520.8 894.6Z" fill="#19435d" stroke="#19435d"></path><path d="M1709.9 87.2L1629.8 0L1603.8 98.2Z" fill="#205a7a" stroke="#205a7a"></path><path d="M1603.8 98.2L1629.8 0L1508.8 0Z" fill="#246688" stroke="#246688"></path><path d="M114.1 696.3L183.1 702.3L189.1 607.1Z" fill="#19435d" stroke="#19435d"></path><path d="M189.1 607.1L183.1 702.3L309.2 670.3Z" fill="#205a7a" stroke="#205a7a"></path><path d="M1830.9 308.5L1731.9 207.4L1697.9 285.5Z" fill="#246688" stroke="#246688"></path><path d="M1697.9 285.5L1731.9 207.4L1613.8 180.4Z" fill="#277297" stroke="#277297"></path><path d="M1830.9 308.5L1697.9 285.5L1717.9 372.7Z" fill="#0c2435" stroke="#0c2435"></path><path d="M396.2 991.8L418.2 1080L487.3 981.8Z" fill="#112e42" stroke="#112e42"></path><path d="M313.2 990.8L418.2 1080L396.2 991.8Z" fill="#00101c" stroke="#00101c"></path><path d="M313.2 990.8L385.2 893.6L296.2 878.6Z" fill="#15384f" stroke="#15384f"></path><path d="M1731.9 207.4L1709.9 87.2L1613.8 180.4Z" fill="#0c2435" stroke="#0c2435"></path><path d="M201.1 999.8L313.2 990.8L296.2 878.6Z" fill="#112e42" stroke="#112e42"></path><path d="M1705.9 870.6L1722.9 796.5L1613.8 780.5Z" fill="#277297" stroke="#277297"></path><path d="M1824.9 602.1L1812.9 478.9L1718.9 597.1Z" fill="#15384f" stroke="#15384f"></path><path d="M1718.9 597.1L1812.9 478.9L1712.9 477.9Z" fill="#0c2435" stroke="#0c2435"></path><path d="M183.1 702.3L186.1 786.5L301.2 776.5Z" fill="#246688" stroke="#246688"></path><path d="M203.1 0L195.1 96.2L294.2 92.2Z" fill="#297ea6" stroke="#297ea6"></path><path d="M99.1 399.7L198.1 491.9L204.1 377.7Z" fill="#112e42" stroke="#112e42"></path><path d="M1600.8 1080L1625.8 964.8L1504.8 978.8Z" fill="#00101c" stroke="#00101c"></path><path d="M1622.8 900.6L1705.9 870.6L1613.8 780.5Z" fill="#00101c" stroke="#00101c"></path><path d="M204.1 377.7L216.1 286.5L89.1 311.5Z" fill="#112e42" stroke="#112e42"></path><path d="M183.1 702.3L114.1 696.3L186.1 786.5Z" fill="#277297" stroke="#277297"></path><path d="M1422.7 1080L1520.8 1080L1428.7 1000.8Z" fill="#246688" stroke="#246688"></path><path d="M1824.9 602.1L1718.9 597.1L1704.9 695.3Z" fill="#277297" stroke="#277297"></path><path d="M1819.9 0L1714.9 0L1709.9 87.2Z" fill="#15384f" stroke="#15384f"></path><path d="M1717.9 962.8L1705.9 870.6L1622.8 900.6Z" fill="#277297" stroke="#277297"></path><path d="M1830.9 705.3L1824.9 602.1L1704.9 695.3Z" fill="#112e42" stroke="#112e42"></path><path d="M89.1 311.5L216.1 286.5L194.1 210.4Z" fill="#297ea6" stroke="#297ea6"></path><path d="M1812.9 478.9L1813.9 375.7L1717.9 372.7Z" fill="#246688" stroke="#246688"></path><path d="M120.1 897.6L194.1 864.6L186.1 786.5Z" fill="#277297" stroke="#277297"></path><path d="M186.1 786.5L194.1 864.6L301.2 776.5Z" fill="#1d4e6b" stroke="#1d4e6b"></path><path d="M82.1 579.1L189.1 607.1L115.1 486.9Z" fill="#081a28" stroke="#081a28"></path><path d="M82.1 579.1L114.1 696.3L189.1 607.1Z" fill="#205a7a" stroke="#205a7a"></path><path d="M97.1 194.4L89.1 311.5L194.1 210.4Z" fill="#246688" stroke="#246688"></path><path d="M0 490.9L82.1 579.1L115.1 486.9Z" fill="#112e42" stroke="#112e42"></path><path d="M314.2 0L203.1 0L294.2 92.2Z" fill="#19435d" stroke="#19435d"></path><path d="M195.1 96.2L97.1 194.4L194.1 210.4Z" fill="#277297" stroke="#277297"></path><path d="M1830.9 705.3L1704.9 695.3L1722.9 796.5Z" fill="#112e42" stroke="#112e42"></path><path d="M1920 400.7L1830.9 308.5L1813.9 375.7Z" fill="#1d4e6b" stroke="#1d4e6b"></path><path d="M0 490.9L115.1 486.9L99.1 399.7Z" fill="#19435d" stroke="#19435d"></path><path d="M1817.9 105.2L1709.9 87.2L1731.9 207.4Z" fill="#112e42" stroke="#112e42"></path><path d="M1709.9 87.2L1714.9 0L1629.8 0Z" fill="#1d4e6b" stroke="#1d4e6b"></path><path d="M1920 400.7L1813.9 375.7L1812.9 478.9Z" fill="#1d4e6b" stroke="#1d4e6b"></path><path d="M1813.9 375.7L1830.9 308.5L1717.9 372.7Z" fill="#246688" stroke="#246688"></path><path d="M1625.8 964.8L1717.9 962.8L1622.8 900.6Z" fill="#19435d" stroke="#19435d"></path><path d="M1520.8 1080L1600.8 1080L1504.8 978.8Z" fill="#112e42" stroke="#112e42"></path><path d="M116.1 87.2L97.1 194.4L195.1 96.2Z" fill="#1d4e6b" stroke="#1d4e6b"></path><path d="M1830.9 769.5L1830.9 705.3L1722.9 796.5Z" fill="#19435d" stroke="#19435d"></path><path d="M1824.9 602.1L1920 479.9L1812.9 478.9Z" fill="#19435d" stroke="#19435d"></path><path d="M1830.9 769.5L1722.9 796.5L1812.9 869.6Z" fill="#246688" stroke="#246688"></path><path d="M1830.9 308.5L1830.9 185.4L1731.9 207.4Z" fill="#0c2435" stroke="#0c2435"></path><path d="M1702.9 1080L1717.9 962.8L1625.8 964.8Z" fill="#15384f" stroke="#15384f"></path><path d="M203.1 0L116.1 87.2L195.1 96.2Z" fill="#081a28" stroke="#081a28"></path><path d="M201.1 999.8L296.2 878.6L194.1 864.6Z" fill="#246688" stroke="#246688"></path><path d="M201.1 999.8L284.2 1080L313.2 990.8Z" fill="#277297" stroke="#277297"></path><path d="M313.2 990.8L284.2 1080L418.2 1080Z" fill="#112e42" stroke="#112e42"></path><path d="M114.1 696.3L86.1 778.5L186.1 786.5Z" fill="#19435d" stroke="#19435d"></path><path d="M0 702.3L86.1 778.5L114.1 696.3Z" fill="#277297" stroke="#277297"></path><path d="M1830.9 185.4L1817.9 105.2L1731.9 207.4Z" fill="#1d4e6b" stroke="#1d4e6b"></path><path d="M1812.9 869.6L1722.9 796.5L1705.9 870.6Z" fill="#246688" stroke="#246688"></path><path d="M120.1 897.6L201.1 999.8L194.1 864.6Z" fill="#1d4e6b" stroke="#1d4e6b"></path><path d="M86.1 778.5L120.1 897.6L186.1 786.5Z" fill="#1d4e6b" stroke="#1d4e6b"></path><path d="M1816.9 966.8L1812.9 869.6L1717.9 962.8Z" fill="#15384f" stroke="#15384f"></path><path d="M1717.9 962.8L1812.9 869.6L1705.9 870.6Z" fill="#0c2435" stroke="#0c2435"></path><path d="M0 383.7L0 490.9L99.1 399.7Z" fill="#1d4e6b" stroke="#1d4e6b"></path><path d="M82.1 579.1L0 702.3L114.1 696.3Z" fill="#205a7a" stroke="#205a7a"></path><path d="M86.1 778.5L0 897.6L120.1 897.6Z" fill="#081a28" stroke="#081a28"></path><path d="M0 383.7L99.1 399.7L89.1 311.5Z" fill="#081a28" stroke="#081a28"></path><path d="M0 383.7L89.1 311.5L0 298.5Z" fill="#246688" stroke="#246688"></path><path d="M0 298.5L89.1 311.5L0 205.4Z" fill="#297ea6" stroke="#297ea6"></path><path d="M1920 597.1L1824.9 602.1L1920 696.3Z" fill="#246688" stroke="#246688"></path><path d="M1920 597.1L1920 479.9L1824.9 602.1Z" fill="#00101c" stroke="#00101c"></path><path d="M1830.9 308.5L1920 207.4L1830.9 185.4Z" fill="#277297" stroke="#277297"></path><path d="M1920 83.2L1819.9 0L1817.9 105.2Z" fill="#297ea6" stroke="#297ea6"></path><path d="M1824.9 602.1L1830.9 705.3L1920 696.3Z" fill="#246688" stroke="#246688"></path><path d="M0 490.9L0 571.1L82.1 579.1Z" fill="#297ea6" stroke="#297ea6"></path><path d="M1920 479.9L1920 400.7L1812.9 478.9Z" fill="#00101c" stroke="#00101c"></path><path d="M0 205.4L89.1 311.5L97.1 194.4Z" fill="#15384f" stroke="#15384f"></path><path d="M1920 696.3L1830.9 705.3L1830.9 769.5Z" fill="#1d4e6b" stroke="#1d4e6b"></path><path d="M1600.8 1080L1702.9 1080L1625.8 964.8Z" fill="#297ea6" stroke="#297ea6"></path><path d="M1920 83.2L1817.9 105.2L1830.9 185.4Z" fill="#0c2435" stroke="#0c2435"></path><path d="M1817.9 105.2L1819.9 0L1709.9 87.2Z" fill="#297ea6" stroke="#297ea6"></path><path d="M203.1 0L93.1 0L116.1 87.2Z" fill="#0c2435" stroke="#0c2435"></path><path d="M0 109.2L0 205.4L97.1 194.4Z" fill="#19435d" stroke="#19435d"></path><path d="M1920 400.7L1920 291.5L1830.9 308.5Z" fill="#00101c" stroke="#00101c"></path><path d="M0 571.1L0 702.3L82.1 579.1Z" fill="#112e42" stroke="#112e42"></path><path d="M0 109.2L97.1 194.4L116.1 87.2Z" fill="#081a28" stroke="#081a28"></path><path d="M88.1 977.8L201.1 999.8L120.1 897.6Z" fill="#1d4e6b" stroke="#1d4e6b"></path><path d="M117.1 1080L186.1 1080L201.1 999.8Z" fill="#246688" stroke="#246688"></path><path d="M201.1 999.8L186.1 1080L284.2 1080Z" fill="#15384f" stroke="#15384f"></path><path d="M1920 781.5L1920 696.3L1830.9 769.5Z" fill="#19435d" stroke="#19435d"></path><path d="M1920 781.5L1830.9 769.5L1812.9 869.6Z" fill="#0c2435" stroke="#0c2435"></path><path d="M1920 291.5L1920 207.4L1830.9 308.5Z" fill="#00101c" stroke="#00101c"></path><path d="M1702.9 1080L1816.9 966.8L1717.9 962.8Z" fill="#112e42" stroke="#112e42"></path><path d="M0 702.3L0 772.5L86.1 778.5Z" fill="#19435d" stroke="#19435d"></path><path d="M0 897.6L88.1 977.8L120.1 897.6Z" fill="#00101c" stroke="#00101c"></path><path d="M93.1 0L0 109.2L116.1 87.2Z" fill="#0c2435" stroke="#0c2435"></path><path d="M1920 892.6L1920 781.5L1812.9 869.6Z" fill="#205a7a" stroke="#205a7a"></path><path d="M1920 207.4L1920 83.2L1830.9 185.4Z" fill="#277297" stroke="#277297"></path><path d="M0 1080L117.1 1080L88.1 977.8Z" fill="#00101c" stroke="#00101c"></path><path d="M88.1 977.8L117.1 1080L201.1 999.8Z" fill="#00101c" stroke="#00101c"></path><path d="M0 772.5L0 897.6L86.1 778.5Z" fill="#205a7a" stroke="#205a7a"></path><path d="M1920 963.8L1920 892.6L1816.9 966.8Z" fill="#1d4e6b" stroke="#1d4e6b"></path><path d="M1816.9 966.8L1920 892.6L1812.9 869.6Z" fill="#205a7a" stroke="#205a7a"></path><path d="M93.1 0L0 0L0 109.2Z" fill="#297ea6" stroke="#297ea6"></path><path d="M1920 83.2L1920 0L1819.9 0Z" fill="#112e42" stroke="#112e42"></path><path d="M1702.9 1080L1828.9 1080L1816.9 966.8Z" fill="#112e42" stroke="#112e42"></path><path d="M1828.9 1080L1920 963.8L1816.9 966.8Z" fill="#00101c" stroke="#00101c"></path><path d="M0 897.6L0 994.8L88.1 977.8Z" fill="#00101c" stroke="#00101c"></path><path d="M0 994.8L0 1080L88.1 977.8Z" fill="#15384f" stroke="#15384f"></path><path d="M1828.9 1080L1920 1080L1920 963.8Z" fill="#19435d" stroke="#19435d"></path></g></svg>